  0
SECTION
  2
HEADER
  9
$ACADVER
  1
AC1024
  9
$ACADMAINTVER
 70
6
  9
$DWGCODEPAGE
  3
ANSI_1252
  9
$LASTSAVEDBY
  1
ezdxf
  9
$INSBASE
 10
0.0
 20
0.0
 30
0.0
  9
$EXTMIN
 10
-100
 20
-100
 30
-100
  9
$EXTMAX
 10
100
 20
100
 30
100
  9
$LIMMIN
 10
0.0
 20
0.0
  9
$LIMMAX
 10
420.0
 20
297.0
  9
$ORTHOMODE
 70
0
  9
$REGENMODE
 70
1
  9
$FILLMODE
 70
1
  9
$QTEXTMODE
 70
0
  9
$MIRRTEXT
 70
1
  9
$LTSCALE
 40
1.0
  9
$ATTMODE
 70
1
  9
$TEXTSIZE
 40
2.5
  9
$TRACEWID
 40
1.0
  9
$TEXTSTYLE
  7
Standard
  9
$CLAYER
  8
0
  9
$CELTYPE
  6
ByLayer
  9
$CECOLOR
 62
256
  9
$CELTSCALE
 40
1.0
  9
$DISPSILH
 70
0
  9
$DIMSCALE
 40
1.0
  9
$DIMASZ
 40
2.5
  9
$DIMEXO
 40
0.625
  9
$DIMDLI
 40
3.75
  9
$DIMRND
 40
0.0
  9
$DIMDLE
 40
0.0
  9
$DIMEXE
 40
1.25
  9
$DIMTP
 40
0.0
  9
$DIMTM
 40
0.0
  9
$DIMTXT
 40
2.5
  9
$DIMCEN
 40
2.5
  9
$DIMTSZ
 40
0.0
  9
$DIMTOL
 70
0
  9
$DIMLIM
 70
0
  9
$DIMTIH
 70
0
  9
$DIMTOH
 70
0
  9
$DIMSE1
 70
0
  9
$DIMSE2
 70
0
  9
$DIMTAD
 70
1
  9
$DIMZIN
 70
8
  9
$DIMBLK
  1

  9
$DIMASO
 70
1
  9
$DIMSHO
 70
1
  9
$DIMPOST
  1

  9
$DIMAPOST
  1

  9
$DIMALT
 70
0
  9
$DIMALTD
 70
3
  9
$DIMALTF
 40
0.03937007874
  9
$DIMLFAC
 40
1.0
  9
$DIMTOFL
 70
1
  9
$DIMTVP
 40
0.0
  9
$DIMTIX
 70
0
  9
$DIMSOXD
 70
0
  9
$DIMSAH
 70
0
  9
$DIMBLK1
  1

  9
$DIMBLK2
  1

  9
$DIMSTYLE
  2
ISO-25
  9
$DIMCLRD
 70
0
  9
$DIMCLRE
 70
0
  9
$DIMCLRT
 70
0
  9
$DIMTFAC
 40
1.0
  9
$DIMGAP
 40
0.625
  9
$DIMJUST
 70
0
  9
$DIMSD1
 70
0
  9
$DIMSD2
 70
0
  9
$DIMTOLJ
 70
0
  9
$DIMTZIN
 70
8
  9
$DIMALTZ
 70
0
  9
$DIMALTTZ
 70
0
  9
$DIMUPT
 70
0
  9
$DIMDEC
 70
2
  9
$DIMTDEC
 70
2
  9
$DIMALTU
 70
2
  9
$DIMALTTD
 70
3
  9
$DIMTXSTY
  7
Standard
  9
$DIMAUNIT
 70
0
  9
$DIMADEC
 70
0
  9
$DIMALTRND
 40
0.0
  9
$DIMAZIN
 70
0
  9
$DIMDSEP
 70
44
  9
$DIMATFIT
 70
3
  9
$DIMFRAC
 70
0
  9
$DIMLDRBLK
  1

  9
$DIMLUNIT
 70
2
  9
$DIMLWD
 70
-2
  9
$DIMLWE
 70
-2
  9
$DIMTMOVE
 70
0
  9
$DIMFXL
 40
1.0
  9
$DIMFXLON
 70
0
  9
$DIMJOGANG
 40
0.785398163397
  9
$DIMTFILL
 70
0
  9
$DIMTFILLCLR
 70
0
  9
$DIMARCSYM
 70
0
  9
$DIMLTYPE
  6

  9
$DIMLTEX1
  6

  9
$DIMLTEX2
  6

  9
$DIMTXTDIRECTION
 70
0
  9
$LUNITS
 70
2
  9
$LUPREC
 70
4
  9
$SKETCHINC
 40
1.0
  9
$FILLETRAD
 40
10.0
  9
$AUNITS
 70
0
  9
$AUPREC
 70
2
  9
$MENU
  1
.
  9
$ELEVATION
 40
0.0
  9
$PELEVATION
 40
0.0
  9
$THICKNESS
 40
0.0
  9
$LIMCHECK
 70
0
  9
$CHAMFERA
 40
0.0
  9
$CHAMFERB
 40
0.0
  9
$CHAMFERC
 40
0.0
  9
$CHAMFERD
 40
0.0
  9
$SKPOLY
 70
0
  9
$TDCREATE
 40
2459063.6006944445
  9
$TDUCREATE
 40
2458532.153996898
  9
$TDUPDATE
 40
2459063.6006944445
  9
$TDUUPDATE
 40
2458532.1544311
  9
$TDINDWG
 40
0.0
  9
$TDUSRTIMER
 40
0.0
  9
$USRTIMER
 70
1
  9
$ANGBASE
 50
0.0
  9
$ANGDIR
 70
0
  9
$PDMODE
 70
0
  9
$PDSIZE
 40
0.0
  9
$PLINEWID
 40
0.0
  9
$SPLFRAME
 70
0
  9
$SPLINETYPE
 70
6
  9
$SPLINESEGS
 70
8
  9
$HANDSEED
  5
53
  9
$SURFTAB1
 70
6
  9
$SURFTAB2
 70
6
  9
$SURFTYPE
 70
6
  9
$SURFU
 70
6
  9
$SURFV
 70
6
  9
$UCSBASE
  2

  9
$UCSNAME
  2

  9
$UCSORG
 10
0.0
 20
0.0
 30
0.0
  9
$UCSXDIR
 10
1.0
 20
0.0
 30
0.0
  9
$UCSYDIR
 10
0.0
 20
1.0
 30
0.0
  9
$UCSORTHOREF
  2

  9
$UCSORTHOVIEW
 70
0
  9
$UCSORGTOP
 10
0.0
 20
0.0
 30
0.0
  9
$UCSORGBOTTOM
 10
0.0
 20
0.0
 30
0.0
  9
$UCSORGLEFT
 10
0.0
 20
0.0
 30
0.0
  9
$UCSORGRIGHT
 10
0.0
 20
0.0
 30
0.0
  9
$UCSORGFRONT
 10
0.0
 20
0.0
 30
0.0
  9
$UCSORGBACK
 10
0.0
 20
0.0
 30
0.0
  9
$PUCSBASE
  2

  9
$PUCSNAME
  2

  9
$PUCSORG
 10
0.0
 20
0.0
 30
0.0
  9
$PUCSXDIR
 10
1.0
 20
0.0
 30
0.0
  9
$PUCSYDIR
 10
0.0
 20
1.0
 30
0.0
  9
$PUCSORTHOREF
  2

  9
$PUCSORTHOVIEW
 70
0
  9
$PUCSORGTOP
 10
0.0
 20
0.0
 30
0.0
  9
$PUCSORGBOTTOM
 10
0.0
 20
0.0
 30
0.0
  9
$PUCSORGLEFT
 10
0.0
 20
0.0
 30
0.0
  9
$PUCSORGRIGHT
 10
0.0
 20
0.0
 30
0.0
  9
$PUCSORGFRONT
 10
0.0
 20
0.0
 30
0.0
  9
$PUCSORGBACK
 10
0.0
 20
0.0
 30
0.0
  9
$USERI1
 70
0
  9
$USERI2
 70
0
  9
$USERI3
 70
0
  9
$USERI4
 70
0
  9
$USERI5
 70
0
  9
$USERR1
 40
0.0
  9
$USERR2
 40
0.0
  9
$USERR3
 40
0.0
  9
$USERR4
 40
0.0
  9
$USERR5
 40
0.0
  9
$WORLDVIEW
 70
1
  9
$SHADEDGE
 70
3
  9
$SHADEDIF
 70
70
  9
$TILEMODE
 70
1
  9
$MAXACTVP
 70
64
  9
$PINSBASE
 10
0.0
 20
0.0
 30
0.0
  9
$PLIMCHECK
 70
0
  9
$PEXTMIN
 10
1e+20
 20
1e+20
 30
1e+20
  9
$PEXTMAX
 10
-1e+20
 20
-1e+20
 30
-1e+20
  9
$PLIMMIN
 10
0.0
 20
0.0
  9
$PLIMMAX
 10
420.0
 20
297.0
  9
$UNITMODE
 70
0
  9
$VISRETAIN
 70
1
  9
$PLINEGEN
 70
0
  9
$PSLTSCALE
 70
1
  9
$TREEDEPTH
 70
3020
  9
$CMLSTYLE
  2
Standard
  9
$CMLJUST
 70
0
  9
$CMLSCALE
 40
20.0
  9
$PROXYGRAPHICS
 70
1
  9
$MEASUREMENT
 70
1
  9
$CELWEIGHT
370
-1
  9
$ENDCAPS
280
0
  9
$JOINSTYLE
280
0
  9
$LWDISPLAY
290
0
  9
$INSUNITS
 70
4
  9
$HYPERLINKBASE
  1

  9
$STYLESHEET
  1

  9
$XEDIT
290
1
  9
$CEPSNTYPE
380
0
  9
$PSTYLEMODE
290
1
  9
$FINGERPRINTGUID
  2
04DBEE10-D3F2-11EA-9FC7-708BCDAABA80
  9
$VERSIONGUID
  2
051610E0-D3F2-11EA-BB11-708BCDAABA80
  9
$EXTNAMES
290
1
  9
$PSVPSCALE
 40
0.0
  9
$OLESTARTUP
290
0
  9
$SORTENTS
280
127
  9
$INDEXCTL
280
0
  9
$HIDETEXT
280
1
  9
$XCLIPFRAME
280
2
  9
$HALOGAP
280
0
  9
$OBSCOLOR
 70
257
  9
$OBSLTYPE
280
0
  9
$INTERSECTIONDISPLAY
280
0
  9
$INTERSECTIONCOLOR
 70
257
  9
$DIMASSOC
280
2
  9
$PROJECTNAME
  1

  9
$CAMERADISPLAY
290
0
  9
$LENSLENGTH
 40
50.0
  9
$CAMERAHEIGHT
 40
0.0
  9
$STEPSPERSEC
 40
24.0
  9
$STEPSIZE
 40
100.0
  9
$3DDWFPREC
 40
2.0
  9
$PSOLWIDTH
 40
0.005
  9
$PSOLHEIGHT
 40
0.08
  9
$LOFTANG1
 40
1.570796326795
  9
$LOFTANG2
 40
1.570796326795
  9
$LOFTMAG1
 40
0.0
  9
$LOFTMAG2
 40
0.0
  9
$LOFTPARAM
 70
7
  9
$LOFTNORMALS
280
1
  9
$LATITUDE
 40
37.795
  9
$LONGITUDE
 40
-122.394
  9
$NORTHDIRECTION
 40
0.0
  9
$TIMEZONE
 70
-8000
  9
$LIGHTGLYPHDISPLAY
280
1
  9
$TILEMODELIGHTSYNCH
280
1
  9
$CMATERIAL
347
20
  9
$SOLIDHIST
280
0
  9
$SHOWHIST
280
1
  9
$DWFFRAME
280
2
  9
$DGNFRAME
280
2
  9
$REALWORLDSCALE
290
1
  9
$INTERFERECOLOR
 62
256
  9
$CSHADOW
280
0
  9
$SHADOWPLANELOCATION
 40
0.0
  0
ENDSEC
  0
SECTION
  2
CLASSES
  0
CLASS
  1
ACDBDICTIONARYWDFLT
  2
AcDbDictionaryWithDefault
  3
ObjectDBX Classes
 90
0
 91
0
280
0
281
0
  0
CLASS
  1
SUN
  2
AcDbSun
  3
SCENEOE
 90
1153
 91
0
280
0
281
0
  0
CLASS
  1
VISUALSTYLE
  2
AcDbVisualStyle
  3
ObjectDBX Classes
 90
4095
 91
0
280
0
281
0
  0
CLASS
  1
MATERIAL
  2
AcDbMaterial
  3
ObjectDBX Classes
 90
1153
 91
0
280
0
281
0
  0
CLASS
  1
SCALE
  2
AcDbScale
  3
ObjectDBX Classes
 90
1153
 91
0
280
0
281
0
  0
CLASS
  1
TABLESTYLE
  2
AcDbTableStyle
  3
ObjectDBX Classes
 90
4095
 91
0
280
0
281
0
  0
CLASS
  1
MLEADERSTYLE
  2
AcDbMLeaderStyle
  3
ACDB_MLEADERSTYLE_CLASS
 90
4095
 91
0
280
0
281
0
  0
CLASS
  1
DICTIONARYVAR
  2
AcDbDictionaryVar
  3
ObjectDBX Classes
 90
0
 91
0
280
0
281
0
  0
CLASS
  1
CELLSTYLEMAP
  2
AcDbCellStyleMap
  3
ObjectDBX Classes
 90
1152
 91
0
280
0
281
0
  0
CLASS
  1
MENTALRAYRENDERSETTINGS
  2
AcDbMentalRayRenderSettings
  3
SCENEOE
 90
1024
 91
0
280
0
281
0
  0
CLASS
  1
ACDBDETAILVIEWSTYLE
  2
AcDbDetailViewStyle
  3
ObjectDBX Classes
 90
1025
 91
0
280
0
281
0
  0
CLASS
  1
ACDBSECTIONVIEWSTYLE
  2
AcDbSectionViewStyle
  3
ObjectDBX Classes
 90
1025
 91
0
280
0
281
0
  0
CLASS
  1
RASTERVARIABLES
  2
AcDbRasterVariables
  3
ISM
 90
0
 91
0
280
0
281
0
  0
CLASS
  1
LAYOUT
  2
AcDbLayout
  3
ObjectDBX Classes
 90
0
 91
0
280
0
281
0
  0
CLASS
  1
ACDBPLACEHOLDER
  2
AcDbPlaceHolder
  3
ObjectDBX Classes
 90
0
 91
0
280
0
281
0
  0
ENDSEC
  0
SECTION
  2
TABLES
  0
TABLE
  2
VPORT
  5
8
330
0
100
AcDbSymbolTable
 70
1
  0
VPORT
  5
23
330
8
100
AcDbSymbolTableRecord
100
AcDbViewportTableRecord
  2
*Active
 70
0
 10
0.0
 20
0.0
 11
1.0
 21
1.0
 12
70.0
 22
50.0
 13
0.0
 23
0.0
 14
0.5
 24
0.5
 15
0.5
 25
0.5
 16
0.0
 26
0.0
 36
1.0
 17
0.0
 27
0.0
 37
0.0
 40
1.0
 41
1.34
 42
50.0
 43
0.0
 44
0.0
 50
0.0
 51
0.0
 71
0
 72
1000
 73
1
 74
3
 75
0
 76
0
 77
0
 78
0
281
0
 65
0
146
0.0
  0
ENDTAB
  0
TABLE
  2
LTYPE
  5
2
330
0
100
AcDbSymbolTable
 70
3
  0
LTYPE
  5
24
330
2
100
AcDbSymbolTableRecord
100
AcDbLinetypeTableRecord
  2
ByBlock
 70
0
  3

 72
65
 73
0
 40
0.0
  0
LTYPE
  5
25
330
2
100
AcDbSymbolTableRecord
100
AcDbLinetypeTableRecord
  2
ByLayer
 70
0
  3

 72
65
 73
0
 40
0.0
  0
LTYPE
  5
26
330
2
100
AcDbSymbolTableRecord
100
AcDbLinetypeTableRecord
  2
Continuous
 70
0
  3

 72
65
 73
0
 40
0.0
  0
ENDTAB
  0
TABLE
  2
LAYER
  5
1
330
0
100
AcDbSymbolTable
 70
4
  0
LAYER
  5
27
330
1
100
AcDbSymbolTableRecord
100
AcDbLayerTableRecord
  2
0
 70
0
 62
7
  6
Continuous
370
-3
390
13
347
21
  0
LAYER
  5
28
330
1
100
AcDbSymbolTableRecord
100
AcDbLayerTableRecord
  2
Defpoints
 70
0
 62
7
  6
Continuous
290
0
370
-3
390
13
347
21
  0
LAYER
  5
2D
330
1
100
AcDbSymbolTableRecord
100
AcDbLayerTableRecord
  2
cam
 70
0
 62
7
  6
Continuous
370
-3
390
13
347
21
  0
LAYER
  5
30
330
1
100
AcDbSymbolTableRecord
100
AcDbLayerTableRecord
  2
pins
 70
0
 62
7
  6
Continuous
370
-3
390
13
347
21
  0
ENDTAB
  0
TABLE
  2
STYLE
  5
5
330
0
100
AcDbSymbolTable
 70
1
  0
STYLE
  5
29
330
5
100
AcDbSymbolTableRecord
100
AcDbTextStyleTableRecord
  2
Standard
 70
0
 40
0.0
 41
1.0
 50
0.0
 71
0
 42
2.5
  3
txt
  4

  0
ENDTAB
  0
TABLE
  2
VIEW
  5
7
330
0
100
AcDbSymbolTable
 70
0
  0
ENDTAB
  0
TABLE
  2
UCS
  5
6
330
0
100
AcDbSymbolTable
 70
0
  0
ENDTAB
  0
TABLE
  2
APPID
  5
3
330
0
100
AcDbSymbolTable
 70
1
  0
APPID
  5
2A
330
3
100
AcDbSymbolTableRecord
100
AcDbRegAppTableRecord
  2
ACAD
 70
0
  0
ENDTAB
  0
TABLE
  2
DIMSTYLE
  5
4
330
0
100
AcDbSymbolTable
 70
1
100
AcDbDimStyleTable
  0
DIMSTYLE
105
2B
330
4
100
AcDbSymbolTableRecord
100
AcDbDimStyleTableRecord
  2
Standard
 70
0
 40
1.0
 41
2.5
 42
0.625
 43
3.75
 44
1.25
 45
0.0
 46
0.0
 47
0.0
 48
0.0
 49
2.5
140
2.5
141
2.5
142
0.0
143
0.03937007874
144
1.0
145
0.0
146
1.0
147
0.625
148
0.0
 69
0
 70
0
 71
0
 72
0
 73
0
 74
0
 75
0
 76
0
 77
1
 78
8
 79
0
170
0
171
3
172
1
173
0
174
0
175
0
176
0
177
0
178
0
179
0
271
0
272
2
273
2
274
3
275
0
276
0
277
2
278
44
279
0
280
0
281
0
282
0
283
0
284
8
285
0
286
0
288
0
289
3
290
0
371
-2
372
-2
  0
ENDTAB
  0
TABLE
  2
BLOCK_RECORD
  5
9
330
0
100
AcDbSymbolTable
 70
2
  0
BLOCK_RECORD
  5
17
330
9
100
AcDbSymbolTableRecord
100
AcDbBlockTableRecord
  2
*Model_Space
340
1A
 70
0
280
1
281
0
  0
BLOCK_RECORD
  5
1B
330
9
100
AcDbSymbolTableRecord
100
AcDbBlockTableRecord
  2
*Paper_Space
340
1E
 70
0
280
1
281
0
  0
ENDTAB
  0
ENDSEC
  0
SECTION
  2
BLOCKS
  0
BLOCK
  5
18
330
17
100
AcDbEntity
  8
0
100
AcDbBlockBegin
  2
*Model_Space
 70
0
 10
0.0
 20
0.0
 30
0.0
  3
*Model_Space
  1

  0
ENDBLK
  5
19
330
17
100
AcDbEntity
  8
0
100
AcDbBlockEnd
  0
BLOCK
  5
1C
330
1B
100
AcDbEntity
  8
0
100
AcDbBlockBegin
  2
*Paper_Space
 70
0
 10
0.0
 20
0.0
 30
0.0
  3
*Paper_Space
  1

  0
ENDBLK
  5
1D
330
1B
100
AcDbEntity
  8
0
100
AcDbBlockEnd
  0
ENDSEC
  0
SECTION
  2
ENTITIES
  0
LWPOLYLINE
  5
2E
330
17
100
AcDbEntity
  8
cam
100
AcDbPolyline
 90
2524
 70
1
 10
0.0
 20
35.0
 10
0.13042359378912166
 20
35.004240001553306
 10
0.25906256259734906
 20
35.01678094800812
 10
0.3842520173530935
 20
35.03710580572961
 10
0.5045483307265439
 20
35.0644156916976
 10
0.6187990475883897
 20
35.09771055270389
 10
0.726175477172528
 20
35.13587949925108
 10
0.826170090364398
 20
35.17778664017663
 10
0.9185665037875892
 20
35.222342134020096
 10
1.003392337968632
 20
35.26855328656176
 10
1.0808649066519058
 20
35.315555169015695
 10
1.1513375815730968
 20
35.36262343256197
 10
1.215251927989144
 20
35.40917356027041
 10
1.2730981574451725
 20
35.45475104741056
 10
1.3726149923854225
 20
35.5417282518583
 10
1.45381750366838
 20
35.62191342704089
 10
1.5202057621102238
 20
35.694718079411004
 10
1.598276819895617
 20
35.79029813762559
 10
1.673446428984824
 20
35.894814133368754
 10
1.7469596103844625
 20
36.01224678992544
 10
1.8186165556424108
 20
36.14594669180198
 10
1.8915403453756956
 20
36.303850476221974
 10
1.8962120931763766
 20
36.31222797399793
 10
1.9087152545702377
 20
36.3310369543079
 10
1.931335206981978
 20
36.360157617481846
 10
1.9664353493639872
 20
36.3991578900765
 10
2.0143957229592973
 20
36.44528575277167
 10
2.0746930293811268
 20
36.49557348457086
 10
2.149434502751715
 20
36.54945910763175
 10
2.234847126591967
 20
36.60241030253196
 10
2.3333250227923146
 20
36.654445838820735
 10
2.4441988340181
 20
36.70354313498581
 10
2.5664716988286784
 20
36.74780575221461
 10
2.6988509835667687
 20
36.78551970828115
 10
2.8397857990893507
 20
36.815201249313354
 10
2.9812437208589855
 20
36.83498254116052
 10
3.127236926840991
 20
36.84546077087078
 10
3.275963101023389
 20
36.84609961460942
 10
3.4255610998093418
 20
36.836647985277935
 10
3.57415462503486
 20
36.81714567135578
 10
3.719896103072273
 20
36.78792232316138
 10
3.861009912615849
 20
36.74958983290131
 10
3.9958341111948554
 20
36.70302822866783
 10
4.122859834245691
 20
36.649365269716895
 10
4.24076757963987
 20
36.589949980410026
 10
4.3484596436186
 20
36.52632037956293
 10
4.44508803958158
 20
36.460165630663305
 10
4.530077307382969
 20
36.393282724340324
 10
4.6031417060617095
 20
36.32752755205371
 10
4.66668893837538
 20
36.262126662885414
 10
4.717642845795041
 20
36.20202038689709
 10
4.756735558761406
 20
36.14908844922661
 10
4.785048620889774
 20
36.10493210701769
 10
4.803994631814864
 20
36.070715046936996
 10
4.815627018774501
 20
36.04614931234235
 10
4.821373224060572
 20
36.031752864611484
 10
4.823819574607242
 20
36.024259895690285
 10
4.874680550346246
 20
35.823055860352184
 10
4.917869160813183
 20
35.69001320111831
 10
4.961681297409813
 20
35.578574490118996
 10
5.016222545045511
 20
35.46106112526456
 10
5.075379454690276
 20
35.35183026717785
 10
5.127320052728251
 20
35.267330811302365
 10
5.192556842716048
 20
35.1727627907261
 10
5.274668785096378
 20
35.068074366862895
 10
5.323345510409844
 20
35.01217043406724
 10
5.377848374560052
 20
34.95419004925908
 10
5.4387439055578675
 20
34.89449835334384
 10
5.506572522185855
 20
34.83359910377445
 10
5.581810645900545
 20
34.77215131518064
 10
5.664822993000222
 20
34.710978153158806
 10
5.755806899905623
 20
34.65106313159864
 10
5.854733144091802
 20
34.59352851676623
 10
5.961290728655803
 20
34.53959199954663
 10
6.07484569701587
 20
34.490500608856024
 10
6.194425049326599
 20
34.447445473498796
 10
6.318735048406138
 20
34.41146655640335
 10
6.446218084404194
 20
34.38336119824136
 10
6.5751445583959045
 20
34.36361218683123
 10
6.7037281021517625
 20
34.35234871688781
 10
6.83024671155559
 20
34.34934719606362
 10
6.953151207827454
 20
34.35407033829784
 10
7.071146216546903
 20
34.365735259304074
 10
7.183235960535095
 20
34.38339678454006
 10
7.28873493793303
 20
34.406031794408214
 10
7.387249618994742
 20
34.43261340236674
 10
7.478640445108661
 20
34.46216838188055
 10
7.562973741434114
 20
34.49381581983293
 10
7.640471556591404
 20
34.52678838840059
 10
7.711465003775803
 20
34.560439551345304
 10
7.776354248355071
 20
34.594240646555136
 10
7.889580771714092
 20
34.66070786307438
 10
7.983696989861054
 20
34.72389441133212
 10
8.096158742780363
 20
34.810104637622736
 10
8.182233362063206
 20
34.88509243933402
 10
8.285068848270642
 20
34.98670608532739
 10
8.375949258595966
 20
35.08943073934073
 10
8.481983454088525
 20
35.2275887074961
 10
8.537892030116161
 20
35.306890920142976
 10
8.543283517973002
 20
35.31349044961454
 10
8.55725889601955
 20
35.328059974596385
 10
8.582436132819625
 20
35.350709998882905
 10
8.621437588164438
 20
35.38102563618135
 10
8.674307987855837
 20
35.41635092396747
 10
8.740110549636016
 20
35.453893057635206
 10
8.820795322131877
 20
35.492684958328
 10
8.911998406675954
 20
35.5289628060303
 10
9.016029949187661
 20
35.56226693159075
 10
9.131915574885763
 20
35.59070696619075
 10
9.258375166107076
 20
35.61256705216654
 10
9.393863812423183
 20
35.62635717930038
 10
9.536616892904634
 20
35.63085488070406
 10
9.678448826044812
 20
35.62558893063799
 10
9.8233681490805
 20
35.61040678891087
 10
9.969510151834243
 20
35.58506104350823
 10
10.114996903500833
 20
35.549595214786635
 10
10.257981320512359
 20
35.504342449802195
 10
10.396690356713407
 20
35.44991761033839
 10
10.529466480345093
 20
35.387202946899464
 10
10.654806620106498
 20
35.31732762283906
 10
10.771397795710474
 20
35.24164141708867
 10
10.878148693958115
 20
35.1616829808688
 10
10.974216505805524
 20
35.079143041075994
 10
11.059028398276139
 20
34.99582291314252
 10
11.132297050243086
 20
34.91358858104738
 10
11.194029722089285
 20
34.83432037384994
 10
11.246479369808585
 20
34.75675671518708
 10
11.287384418588934
 20
34.68639484948622
 10
11.317755671556704
 20
34.62499675938341
 10
11.338902108074143
 20
34.57401021466436
 10
11.352386320627962
 20
34.5344267892407
 10
11.360174479229494
 20
34.50565637079346
 10
11.363714327391646
 20
34.488292595685174
 10
11.364888389914302
 20
34.47987991732275
 10
11.376993773512632
 20
34.27015442907593
 10
11.394412523791893
 20
34.13058122355256
 10
11.416599099421763
 20
34.012182092906684
 10
11.44829570330139
 20
33.88572093422381
 10
11.486178150371392
 20
33.76656169757712
 10
11.521630484929155
 20
33.673218324800196
 10
11.568375251704332
 20
33.56742762097215
 10
11.62995338961797
 20
33.448488554884634
 10
11.66762959282829
 20
33.38408999398989
 10
11.710689815356545
 20
33.316567585188544
 10
11.759760630245847
 20
33.246184437075605
 10
11.815466557513133
 20
33.173346971085905
 10
11.878395013624125
 20
33.098628094457
 10
11.949050150913237
 20
33.02278419654075
 10
12.027796664721965
 20
32.9467606671498
 10
12.1147972544133
 20
32.87168007948064
 10
12.209950625387597
 20
32.79880789070624
 10
12.312839963311342
 20
32.72949306301293
 10
12.422703495279299
 20
32.665085534062754
 10
12.53843775564662
 20
32.60683828351988
 10
12.658639723254417
 20
32.555807221412095
 10
12.781686573391571
 20
32.51276511743398
 10
12.905843369365298
 20
32.4781446059067
 10
13.02938245484085
 20
32.4520197390469
 10
13.150696002388784
 20
32.43412728155667
 10
13.268385845927362
 20
32.42392077010335
 10
13.381321091673906
 20
32.4206449180318
 10
13.488661562118322
 20
32.423416460170216
 10
13.589851453445009
 20
32.43129957004561
 10
13.684591293506822
 20
32.443368032669326
 10
13.772797244126808
 20
32.458750745028055
 10
13.854555725955505
 20
32.47666066510381
 10
13.930079259989379
 20
32.496409557291216
 10
14.063672825574294
 20
32.53918101603966
 10
14.176472974237747
 20
32.583517254814936
 10
14.271561299951882
 20
32.62714815192169
 10
14.38718795454994
 20
32.68853086486179
 10
14.503138272923168
 20
32.76013902912044
 10
14.622009109966022
 20
32.845233799976796
 10
14.73673298671012
 20
32.93995746576344
 10
14.877366014149246
 20
33.07212821431336
 10
14.885395727136817
 20
33.07857888467402
 10
14.904231806437897
 20
33.091455039184936
 10
14.936744029090711
 20
33.11035320801042
 10
14.982488338326688
 20
33.13276123405941
 10
15.04427105774718
 20
33.157769904480524
 10
15.1190482378611
 20
33.18203850896073
 10
15.208567948473949
 20
33.20426269738605
 10
15.30763600075382
 20
33.221639624241504
 10
15.41848380285179
 20
33.23329749499286
 10
15.539736095284864
 20
33.23760901500822
 10
15.669760829972786
 20
33.233186064330496
 10
15.806719576078175
 20
33.21892010457109
 10
15.948620119726327
 20
33.19401251134091
 10
16.08731042388086
 20
33.159720714394155
 10
16.22673865151619
 20
33.115106877176885
 10
16.365032493519873
 20
33.06034523943403
 10
16.500371382876075
 20
32.99589664794829
 10
16.631029120118942
 20
32.92249750917453
 10
16.755414211345773
 20
32.84114249182335
 10
16.872107140247664
 20
32.75306134165159
 10
16.97989383007399
 20
32.65969023639142
 10
17.07779459857694
 20
32.56263816213712
 10
17.16508796389086
 20
32.463648824243094
 10
17.241328715731495
 20
32.36455860371261
 10
17.30635971537662
 20
32.26725101617074
 10
17.360316915998588
 20
32.173607995480054
 10
17.403627079808484
 20
32.08545805669257
 10
17.438237050942018
 20
32.001190238835854
 10
17.463133059620162
 20
31.926530581369118
 10
17.479695311991787
 20
31.862949534771815
 10
17.489524423760393
 20
31.81152827026486
 10
17.494365030254496
 20
31.77281740124773
 10
17.49601563266558
 20
31.745783139174154
 10
17.495993029658834
 20
31.73036170140302
 10
17.495477788659457
 20
31.72252664855069
 10
17.46770998208346
 20
31.514739983885512
 10
17.45844246737868
 20
31.373604102078435
 10
17.457945486988745
 20
31.25242190196458
 10
17.465372133934142
 20
31.121433992655355
 10
17.48034866027828
 20
30.99647147812597
 10
17.497831735873138
 20
30.8974871749815
 10
17.524180275560376
 20
30.784073410420188
 10
17.562779738412477
 20
30.654892398699825
 10
17.587988030926187
 20
30.584153215426824
 10
17.617950697706046
 20
30.5093353653824
 10
17.6533360117888
 20
30.43059021383811
 10
17.694835090610905
 20
30.34821295880283
 10
17.74313080979864
 20
30.262671843573294
 10
17.798854568217884
 20
30.174632974047633
 10
17.862531141994825
 20
30.084975209118983
 10
17.9345144080699
 20
29.99478862527948
 10
18.014920047280864
 20
29.90535028827913
 10
18.103564775959192
 20
29.818073185754383
 10
18.199924006665647
 20
29.73442849431287
 10
18.303119679027276
 20
29.655847360315082
 10
18.411946334797737
 20
29.583614521866505
 10
18.524936537801953
 20
29.518770160176132
 10
18.640458215902285
 20
29.462036379267918
 10
18.756829240258874
 20
29.413780100645543
 10
18.872431150538887
 20
29.374016267622185
 10
18.98580544991338
 20
29.342446799236377
 10
19.095721394953266
 20
29.31852447121379
 10
19.201211393681895
 20
29.301528370414488
 10
19.30157657344275
 20
29.290638660347547
 10
19.396369247891037
 20
29.285001815158388
 10
19.485360557090342
 20
29.28378161273993
 10
19.568501027498133
 20
29.286194780937077
 10
19.645880105063835
 20
29.291532660008865
 10
19.784186780510595
 20
29.308574570582167
 10
19.902485182310933
 20
29.330935650033275
 10
20.003378193901348
 20
29.355853124767886
 10
20.12763767783414
 20
29.394234466742944
 10
20.25416534973391
 20
29.4424899387599
 10
20.386133561319717
 20
29.50332683368351
 10
20.515947988642726
 20
29.57431767498791
 10
20.678220609160228
 20
29.676993464843903
 10
20.687346341898305
 20
29.68181602018856
 10
20.70832856346932
 20
29.690910831228333
 10
20.743885929719777
 20
29.70332474726203
 10
20.793100583342945
 20
29.716673006304298
 10
20.85855658066405
 20
29.729531427938262
 10
20.93662818849807
 20
29.7391961591776
 10
21.02878540882642
 20
29.744055807254107
 10
21.12939430711543
 20
29.74234308512258
 10
21.24048192153006
 20
29.732779772073897
 10
21.360388986540837
 20
29.714029253377248
 10
21.48724956868471
 20
29.68503849907651
 10
21.619048209488845
 20
29.645068160642293
 10
21.753677315675098
 20
29.593712363022124
 10
21.883370333351653
 20
29.533751672861914
 10
22.01182719203843
 20
29.463517345466666
 10
22.13724272592787
 20
29.383535911648497
 10
22.25791697997681
 20
29.294605474701306
 10
22.37229496219758
 20
29.197776772303012
 10
22.479002964193256
 20
29.09432853607717
 10
22.576880754177118
 20
28.985737652113123
 10
22.665008993032593
 20
28.873644683666935
 10
22.742731280379775
 20
28.759815360696717
 10
22.809670297535376
 20
28.646098661546006
 10
22.86573756923103
 20
28.53438209921367
 10
22.91113640384714
 20
28.426544762210092
 10
22.946357573771888
 20
28.32440852171213
 10
22.97216723170193
 20
28.229687556440748
 10
22.99017189229332
 20
28.14043261445779
 10
23.000462311784148
 20
28.062455738448286
 10
23.004672729832468
 20
27.996938181245067
 10
23.004579820842235
 20
27.94463684373526
 10
23.00200080378103
 20
27.905759831677816
 10
22.99850531974183
 20
27.87895012851945
 10
22.995568895870605
 20
27.86385118204927
 10
22.9935822637489
 20
27.85627007369608
 10
22.92999996966227
 20
27.66756584365719
 10
22.895273362591276
 20
27.538326058893592
 10
22.867339702454434
 20
27.399220365123806
 10
22.84992295275933
 20
27.268344461513017
 10
22.84115853038996
 20
27.14196442461895
 10
22.839810902228326
 20
27.040784969668128
 10
22.844556686786653
 20
26.92366538433227
 10
22.85851172857384
 20
26.78866475907153
 10
22.870204546890736
 20
26.713989381796456
 10
22.885853693042193
 20
26.634406517437135
 10
22.906149257676738
 20
26.54994936781478
 10
22.93182918903466
 20
26.460791160283847
 10
22.96365321061092
 20
26.367279712501514
 10
23.002363836939228
 20
26.269969554193295
 10
23.048633839166442
 20
26.1696459770407
 10
23.103001924683944
 20
26.067334013689948
 10
23.165801781246508
 20
25.96428507867332
 10
23.237093409499025
 20
25.861935636929893
 10
23.316608663178993
 20
25.761836280566204
 10
23.403723628144075
 20
25.66555566683516
 10
23.49746769088204
 20
25.574570472580543
 10
23.596572779709785
 20
25.490157576921515
 10
23.699557805398975
 20
25.413305892474227
 10
23.804835505832372
 20
25.34466168718906
 10
23.910824453322103
 20
25.28451388064553
 10
24.016049310513473
 20
25.23281722340231
 10
24.119216949249193
 20
25.189244323389605
 10
24.219262718329414
 20
25.153253983530572
 10
24.315367577978776
 20
25.12416346779812
 10
24.406951346049926
 20
25.101215055349236
 10
24.49364938248549
 20
25.08363104459444
 10
24.575280044108776
 20
25.070654948204997
 10
24.651808964398327
 20
25.061579266538082
 10
24.789956481066483
 20
25.05263287431424
 10
24.90954752033219
 20
25.052527255104277
 10
25.012629955364748
 20
25.05810394455688
 10
25.141033839366425
 20
25.072430882240457
 10
25.273528946748343
 20
25.095919525786144
 10
25.413746704316925
 20
25.130623446798644
 10
25.553848146393836
 20
25.175604418475473
 10
25.73171433652495
 20
25.245390696000413
 10
25.741609487477277
 20
25.248403183560768
 10
25.763985644693893
 20
25.253369114014088
 10
25.801306912767974
 20
25.258828816157408
 10
25.85221405356146
 20
25.262613545922278
 10
25.91897535492208
 20
25.262835435433
 10
25.997514503676932
 20
25.257526941790466
 10
26.088970385283957
 20
25.244827728937377
 10
26.187473666297354
 20
25.224071143941774
 10
26.294773796649455
 20
25.193618380971255
 10
26.408987855497273
 20
25.15247215169978
 10
26.528083895213772
 20
25.09995283124668
 10
26.649942740714106
 20
25.035717156478416
 10
26.77241808165094
 20
24.95976676213166
 10
26.888410717453095
 20
24.876304780345304
 10
27.001238368166007
 20
24.782991643188407
 10
27.10922867277648
 20
24.680687015923688
 10
27.21086412323078
 20
24.570497224629314
 10
27.304817497925363
 20
24.45374911644404
 10
27.389982843864583
 20
24.33195897234871
 10
27.46550141974807
 20
24.20679709857496
 10
27.53078206873467
 20
24.080048770791947
 10
27.58551555325272
 20
23.95357223711578
 10
27.629682446952934
 20
23.82925449482623
 10
27.66355423037767
 20
23.708965532479173
 10
27.68768726216921
 20
23.59451166040559
 10
27.70290927302561
 20
23.48758841611913
 10
27.710297915282677
 20
23.389733287482983
 10
27.711061704396997
 20
23.298729285120967
 10
27.706391741025737
 20
23.220263427078386
 10
27.698116694329283
 20
23.15518481233782
 10
27.68812439555688
 20
23.103898573250078
 10
27.67823806372565
 20
23.06626281933561
 10
27.669741161548952
 20
23.040646616495497
 10
27.664012005343633
 20
23.02641419468002
 10
27.660631342820217
 20
23.019360101752273
 10
27.562019603930533
 20
22.8452097890638
 10
27.503214859568203
 20
22.72417509802455
 10
27.449276080138873
 20
22.592027421715066
 10
27.40732552056521
 20
22.46595654324535
 10
27.3748215774297
 20
22.342652266079664
 10
27.354440042534907
 20
22.24284688473737
 10
27.337126047411054
 20
22.12612167315527
 10
27.325618822935894
 20
21.989986613833686
 10
27.323210536477703
 20
21.91394842689457
 10
27.323817180220132
 20
21.832329446359402
 10
27.32812983132023
 20
21.745041817832952
 10
27.3369118009088
 20
21.652129553540462
 10
27.350978474296095
 20
21.553807583043994
 10
27.371163809134604
 20
21.45050043827876
 10
27.398271932328317
 20
21.34287498890879
 10
27.43301449528321
 20
21.23185988923748
 10
27.475937815063432
 20
21.118643619494332
 10
27.527347867922032
 20
21.004644097916593
 10
27.58724480203912
 20
20.891446455022376
 10
27.655280236176196
 20
20.780711572588153
 10
27.730748801547634
 20
20.674065114990952
 10
27.812619766902003
 20
20.572982738275332
 10
27.89960636727185
 20
20.47868954598654
 10
27.99026222176436
 20
20.3920893813797
 10
28.08308882108181
 20
20.31373285784054
 10
28.176637197784792
 20
20.243824502238212
 10
28.269590362646383
 20
20.182261910678193
 10
28.360819115396524
 20
20.128695444365142
 10
28.449410119768505
 20
20.08259623640628
 10
28.534669914763775
 20
20.043322314558605
 10
28.61611109206197
 20
20.010176049750196
 10
28.693427390971923
 20
19.98244961885689
 10
28.766463616183206
 20
19.959457926829785
 10
28.899647499663153
 20
19.92517230557742
 10
29.016335055345515
 20
19.902899954629937
 10
29.117961911000332
 20
19.889195023352634
 10
29.24593350438012
 20
19.87927508336636
 10
29.37963244846983
 20
19.87747647834352
 10
29.52301588499649
 20
19.88512336434312
 10
29.67857693220556
 20
19.90438694695042
 10
29.854973398491495
 20
19.93745501192321
 10
29.865047021342196
 20
19.938541211031044
 10
29.887439083698585
 20
19.939217199020362
 10
29.924560008712305
 20
19.937627873517886
 10
29.974732362854194
 20
19.93189632862464
 10
30.039822701046557
 20
19.9197442487035
 10
30.115496918271887
 20
19.899990387469007
 10
30.202517061132095
 20
19.870591919638514
 10
30.295016147683008
 20
19.83197563429009
 10
30.3943926897891
 20
19.782203666382966
 10
30.49861363596949
 20
19.720640479751914
 10
30.60555721064215
 20
19.646990211447292
 10
30.71307727817057
 20
19.56130371797467
 10
30.819064099166326
 20
19.463975936875464
 10
30.9173290292431
 20
19.360449699625452
 10
31.010683916338788
 20
19.247808210425365
 10
31.097642140690095
 20
19.127203079067712
 10
31.176914536239785
 20
19.000000000000004
 10
31.247439436377178
 20
18.867746552101266
 10
31.308407431784012
 20
18.73213595506622
 10
31.359280379403558
 20
18.594967506673886
 10
31.39980426578189
 20
18.458104462301296
 10
31.430015596547022
 20
18.323430138094245
 10
31.450241047465127
 20
18.19280301701881
 10
31.461090159627517
 20
18.068011605823035
 10
31.463440874903448
 20
17.950729720541734
 10
31.458417660957256
 20
17.842472751559637
 10
31.447361822292798
 20
17.74455524597504
 10
31.43103913428535
 20
17.65456089965532
 10
31.411680575855883
 20
17.577880016004976
 10
31.39124127114973
 20
17.515015984365956
 10
31.371654835743563
 20
17.46602751946418
 10
31.354694301648326
 20
17.43045196679915
 10
31.34132345842163
 20
17.406456464252187
 10
31.33281707273101
 20
17.39321261933342
 10
31.328084975671736
 20
17.38679143056912
 10
31.197529576564605
 20
17.23348636134439
 10
31.116504529622418
 20
17.125120070566982
 10
31.038190413823624
 20
17.00476981505278
 10
30.97289857941993
 20
16.88808383050048
 10
30.91750370276217
 20
16.772297209677745
 10
30.87855909357804
 20
16.677433305335228
 10
30.839503737459328
 20
16.565242742335155
 10
30.802604014708514
 20
16.43275930524058
 10
30.785997291474285
 20
16.35801223279765
 10
30.771350935529178
 20
16.277191138368398
 10
30.759335854244743
 20
16.190087877509747
 10
30.750718170773375
 20
16.096613768198672
 10
30.74634575377414
 20
15.996842103886344
 10
30.747121298017102
 20
15.891052453292636
 10
30.753959483800127
 20
15.77977135538034
 10
30.76772770733699
 20
15.6638019068716
 10
30.789173147615408
 20
15.544233451946194
 10
30.818843162890584
 20
15.422423096650492
 10
30.857010162631692
 20
15.299943894796797
 10
30.903614586065146
 20
15.178500370609756
 10
30.958238844882256
 20
15.059819447012165
 10
31.02012034908681
 20
14.945531591474998
 10
31.088203916423183
 20
14.837060503473692
 10
31.161225371699427
 20
14.735538330899333
 10
31.23781187752856
 20
14.641757510683476
 10
31.316582492570088
 20
14.556162018736256
 10
31.396234804221415
 20
14.478872970716482
 10
31.475608748561307
 20
14.40973838557982
 10
31.55372473606775
 20
14.34839530383145
 10
31.62979813247384
 20
14.294333762926335
 10
31.70323511066384
 20
14.246955083252633
 10
31.77361589936705
 20
14.20562022409302
 10
31.840671044143072
 20
14.169686767875906
 10
31.964321076098884
 20
14.111584786937673
 10
32.074065072153076
 20
14.068216540764801
 10
32.17068983527733
 20
14.035964777080768
 10
32.29372644326584
 20
14.002461878976348
 10
32.42388230648485
 20
13.975756690035338
 10
32.56529494093464
 20
13.956395205115438
 10
32.72084241847437
 20
13.946022803213495
 10
32.899413070859744
 20
13.945138814497344
 10
32.90953032931478
 20
13.944294928767214
 10
32.931695828295894
 20
13.94070789569745
 10
32.96789788505078
 20
13.932100595815271
 10
33.01612751811281
 20
13.916949217308161
 10
33.077786598669235
 20
13.89266284267568
 10
33.148392149200525
 20
13.858904606416012
 10
33.22830625374763
 20
13.813524359806667
 10
33.311847064058846
 20
13.75805482005019
 10
33.4000219308051
 20
13.69032806327832
 10
33.49071405079838
 20
13.610106120965568
 10
33.5817840389858
 20
13.517501348247407
 10
33.67113444156983
 20
13.412971127049715
 10
33.756768875157704
 20
13.297303745057349
 10
33.83364240975013
 20
13.177017377144551
 10
33.90396422591909
 20
13.048714909508252
 10
33.96649338560693
 20
12.913809237472686
 10
34.020223455780624
 20
12.773885963275939
 10
34.06440589443158
 20
12.630666078290089
 10
34.09856747764778
 20
12.485965678747117
 10
34.12252145244005
 20
12.341653513526616
 10
34.13637217011495
 20
12.199607186755959
 10
34.14051302604483
 20
12.061668844619904
 10
34.13561759373669
 20
11.929601161487398
 10
34.1226238813428
 20
11.805044400804633
 10
34.102711638561296
 20
11.689475254362959
 10
34.077272571563455
 20
11.584168047878158
 10
34.04787313252808
 20
11.490158720002807
 10
34.01480830079379
 20
11.404930731735707
 10
33.981289735342
 20
11.333351394217202
 10
33.94933232236997
 20
11.275543427231597
 10
33.920845194959824
 20
11.231196824519294
 10
33.89748044568007
 20
11.199519798114663
 10
33.87983618794506
 20
11.178529327733024
 10
33.86900227730197
 20
11.167165990832027
 10
33.86315110688614
 20
11.161768595441908
 10
33.70517081521175
 20
11.035281380005822
 10
33.60460626624251
 20
10.943638527882232
 10
33.50444291025047
 20
10.839558348272405
 10
33.41785359454851
 20
10.736558541175347
 10
33.341244160555306
 20
10.632520984527064
 10
33.28487338830404
 20
10.546037321831275
 10
33.225169337590124
 20
10.442415634157188
 10
33.16384338219411
 20
10.318303179141017
 10
33.133438692929595
 20
10.247489349212607
 10
33.10386099123319
 20
10.170307074324342
 10
33.07574017302945
 20
10.08643236693565
 10
33.04982219715111
 20
9.995644290987252
 10
33.026962892959865
 20
9.89786978323744
 10
33.00810855702854
 20
9.793232435743231
 10
32.99425997598824
 20
9.682100189743295
 10
32.98641816585591
 20
9.565124461684443
 10
32.98551322055963
 20
9.443261437366273
 10
32.992321995942504
 20
9.317766171696293
 10
33.00738499415288
 20
9.190152681016418
 10
33.03093616178672
 20
9.062118708617842
 10
33.06285962001045
 20
8.935441371705487
 10
33.102683594910985
 20
8.811857292130334
 10
33.14961455358442
 20
8.692945384273278
 10
33.20260595607108
 20
8.580030302257786
 10
33.260449023347164
 20
8.47411956361228
 10
33.321869739961194
 20
8.37587943872352
 10
33.38561750526021
 20
8.285646652785324
 10
33.450535261237256
 20
8.203467187834553
 10
33.515606539773316
 20
8.12915105280777
 10
33.579979846772034
 20
8.062332476118819
 10
33.642974101558934
 20
8.002527426749957
 10
33.70407031072429
 20
7.949183436455641
 10
33.76289467532328
 20
7.90171947011386
 10
33.87283112543231
 20
7.822133736784742
 10
33.97188676933472
 20
7.759463974128491
 10
34.060184561743995
 20
7.710041326875868
 10
34.17401509541015
 20
7.654441520850169
 10
34.2960653275279
 20
7.604086916732116
 10
34.43050122221201
 20
7.558725329146444
 10
34.580475631035895
 20
7.519409864687395
 10
34.75455432267665
 20
7.484996929182882
 10
34.76373099355759
 20
7.482459373354596
 10
34.78476671721482
 20
7.474833121499712
 10
34.81820858806315
 20
7.459839725526295
 10
34.86420832506559
 20
7.435076835497545
 10
34.92019418011112
 20
7.399516960153978
 10
34.983164061500936
 20
7.352960324627822
 10
35.053066997130976
 20
7.293227010787472
 10
35.12461288382321
 20
7.22290089628401
 10
35.198381348180185
 20
7.139662028732831
 10
35.27224884466733
 20
7.043678689518216
 10
35.34413620328251
 20
6.935467375771958
 10
35.412070946918725
 20
6.815875359903526
 10
35.4742426637755
 20
6.6860556038631245
 10
35.526933420393576
 20
6.553365353555591
 10
35.57166954979148
 20
6.41404989980099
 10
35.607500931323884
 20
6.269732026716116
 10
35.63374047175455
 20
6.122159566192115
 10
35.64997998126106
 20
5.973164319978794
 10
35.65609963601979
 20
5.82461919991061
 10
35.65227086916158
 20
5.678394430147813
 10
35.63895260532004
 20
5.536313665728798
 10
35.61688082499743
 20
5.4001108747366855
 10
35.58705150312431
 20
5.271388805530987
 10
35.550696998060445
 20
5.1515798138502165
 10
35.50925595326469
 20
5.041909753982319
 10
35.464336682537876
 20
4.943365537789223
 10
35.41767378724828
 20
4.856666823785122
 10
35.369081177004034
 20
4.779287666721458
 10
35.3226338362456
 20
4.715396136252107
 10
35.28033299677112
 20
4.664729912572673
 10
35.243993654583974
 20
4.626621719152464
 10
35.21508651205858
 20
4.599979758766393
 10
35.1938220490476
 20
4.582743047276223
 10
35.18106400652298
 20
4.57366134833137
 10
35.17430973457196
 20
4.569478716258482
 10
34.99435993245671
 20
4.474669662162383
 10
34.877671911000476
 20
4.403246132203618
 10
34.75900150871634
 20
4.319376755940213
 10
34.65394720812818
 20
4.233928313801783
 10
34.55857824898007
 20
4.145507115042395
 10
34.48655257706657
 20
4.0705899413080235
 10
34.40803811330569
 20
3.9793210598474635
 10
34.32412604809676
 20
3.8680649206841498
 10
34.28081377043541
 20
3.8037216133267413
 10
34.237153670269166
 20
3.732926437969655
 10
34.19371474196163
 20
3.6552476022778038
 10
34.151200055868564
 20
3.5703363155183134
 10
34.110448231545995
 20
3.4779726651565435
 10
34.07242228723913
 20
3.3781175960128715
 10
34.038181658504385
 20
3.2709664313160056
 10
34.008834470423196
 20
3.1569966737284725
 10
33.98547000483326
 20
3.0370005661882926
 10
33.96907565583404
 20
2.912092163520035
 10
33.96044771230309
 20
2.7836805651431615
 10
33.96010947531705
 20
2.6534059981174862
 10
33.968251620515716
 20
2.5230429303870707
 10
33.984707042635165
 20
2.394382289562618
 10
34.00896585496197
 20
2.2691104021608632
 10
34.04022767857798
 20
2.148703263951477
 10
34.077480730887004
 20
2.0343507692869887
 10
34.11959297053498
 20
1.9269181402989795
 10
34.16540058572124
 20
1.82694372731777
 10
34.213782604041356
 20
1.7346661021694072
 10
34.2637155233043
 20
1.6500702248439432
 10
34.31430677944786
 20
1.5729423408328398
 10
34.364809424068675
 20
1.5029251841440503
 10
34.41462224947375
 20
1.4395678285254119
 10
34.46328003297428
 20
1.3823672151859474
 10
34.555854339384645
 20
1.2843485939234627
 10
34.64089927078992
 20
1.2048232069209373
 10
34.7178806540915
 20
1.1401902677473044
 10
34.8186131030227
 20
1.064738958208227
 10
34.928338636600394
 20
0.9928133386339131
 10
35.05109878542586
 20
0.9233724591734929
 10
35.19019997243752
 20
0.8568336117169697
 10
35.35380764903202
 20
0.7904531619633803
 10
35.3623529435027
 20
0.7862150309641469
 10
35.381607770117405
 20
0.7747144910162118
 10
35.411648780734915
 20
0.7536238384645655
 10
35.452166906344736
 20
0.7205570281283353
 10
35.50043963541658
 20
0.6749947600569974
 10
35.55348041142744
 20
0.6173113981601523
 10
35.61082701149182
 20
0.5453758885506887
 10
35.667773626566486
 20
0.46273026011124574
 10
35.72445099665972
 20
0.36698609207114874
 10
35.77880609322193
 20
0.2587118180976803
 10
35.82889559744314
 20
0.13880929949996124
 10
35.8729437581554
 20
0.008484881911744901
 10
35.90939198571005
 20
-0.130785738790673
 10
35.9359845162305
 20
-0.27107301120074223
 10
35.95350933005785
 20
-0.41635352821880023
 10
35.96134168074258
 20
-0.5648536476826318
 10
35.95913880532794
 20
-0.714726886831597
 10
35.94684771327016
 20
-0.8640972662409008
 10
35.92470634049217
 20
-1.0111031862874973
 10
35.89323807321603
 20
-1.1539409775638814
 10
35.85323972029217
 20
-1.2909072703853157
 10
35.80576308109884
 20
-1.420439348905044
 10
35.75209030820383
 20
-1.5411526918044265
 10
35.693703286297975
 20
-1.6518749534184902
 10
35.63224722153124
 20
-1.7516757058950319
 10
35.56948852629513
 20
-1.8398913443566371
 10
35.507266838528004
 20
-1.91614465402266
 10
35.444922080613026
 20
-1.9828798890048112
 10
35.387243965018705
 20
-2.0367789493564414
 10
35.33614716920047
 20
-2.0784795364682243
 10
35.29328635817307
 20
-2.108981713675473
 10
35.25989705840552
 20
-2.1296371880170564
 10
35.23579427298391
 20
-2.1425098381040466
 10
35.221582992746214
 20
-2.148993287043934
 10
35.21417334146447
 20
-2.151814820991442
 10
35.01856148410134
 20
-2.211185718484902
 10
34.88978601521777
 20
-2.2595855563902845
 10
34.782346426454
 20
-2.307445537041896
 10
34.669456605520125
 20
-2.3659117186772702
 10
34.56488047132933
 20
-2.4283789157859426
 10
34.48420710057677
 20
-2.482645975362722
 10
34.39414498259597
 20
-2.5502360228470566
 10
34.29471290921877
 20
-2.6346385187856423
 10
34.24173043460793
 20
-2.684402262763982
 10
34.18686562526012
 20
-2.739933115727204
 10
34.130475938580425
 20
-2.801783077927853
 10
34.07305114358864
 20
-2.8704803157503544
 10
34.015229628340975
 20
-2.9464931926823836
 10
33.95780770926472
 20
-3.0301846542398145
 10
33.90173724814303
 20
-3.121758457429662
 10
33.84810659638274
 20
-3.221201175264598
 10
33.79810077281604
 20
-3.3282268252629557
 10
33.75293932176471
 20
-3.442233668007809
 10
33.713794577398
 20
-3.5622840878198634
 10
33.68169842188574
 20
-3.687117282949221
 10
33.65745055229456
 20
-3.8152000330126024
 10
33.6415437646581
 20
-3.9448135215997544
 10
33.634120233145126
 20
-4.074165956437534
 10
33.63496702342697
 20
-4.2015143305465505
 10
33.643550756106436
 20
-4.325276524813593
 10
33.659083237327316
 20
-4.444117855720292
 10
33.6806046387342
 20
-4.5570028703718375
 10
33.70706968956772
 20
-4.663211116485175
 10
33.73742486324066
 20
-4.762322209243584
 10
33.77066908048807
 20
-4.854179289170964
 10
33.80589521274871
 20
-4.938840770320697
 10
33.842313399568205
 20
-5.016528916655767
 10
33.87925940965077
 20
-5.087581367658414
 10
33.916192097747654
 20
-5.152409197204113
 10
33.988407281525
 20
-5.265206961998847
 10
34.056652335136775
 20
-5.358584469434104
 10
34.11976389995756
 20
-5.435958778173141
 10
34.204017602454186
 20
-5.528345558016611
 10
34.297687876525806
 20
-5.6190262015315025
 10
34.4045436372188
 20
-5.709791957818904
 10
34.527917354520675
 20
-5.800880260491791
 10
34.67527888300798
 20
-5.89652444731126
 10
34.68288040268104
 20
-5.902315649204599
 10
34.69964667774332
 20
-5.91729096691012
 10
34.725186186606805
 20
-5.943732152566289
 10
34.75874087072384
 20
-5.983921434551512
 10
34.79753696494952
 20
-6.037850101412952
 10
34.83871229411077
 20
-6.104582838525484
 10
34.88141002475153
 20
-6.186124958623482
 10
34.9216801202471
 20
-6.278104184468056
 10
34.95919944441238
 20
-6.382891324837763
 10
34.992060184095735
 20
-6.4995384503423015
 10
35.018525567932535
 20
-6.626791132343461
 10
35.037081164438646
 20
-6.763127830662784
 10
35.04647689643699
 20
-6.906803794666076
 10
35.046001319054916
 20
-7.049604753383244
 10
35.03567524834913
 20
-7.19558538799652
 10
35.01522203306347
 20
-7.342885715740232
 10
34.98465570577703
 20
-7.489627769687393
 10
34.94428040179246
 20
-7.6339596322334575
 10
34.89468316279256
 20
-7.774098732490039
 10
34.836720292603694
 20
-7.908373565436511
 10
34.77149750441787
 20
-8.035263008422609
 10
34.70034416203587
 20
-8.153432443607809
 10
34.62478196187431
 20
-8.261765940625217
 10
34.54648841441185
 20
-8.359393808966662
 10
34.46725544398036
 20
-8.445714889945672
 10
34.38894330287609
 20
-8.52041301733059
 10
34.31342973518821
 20
-8.583467124358242
 10
34.23960484586324
 20
-8.637151693189029
 10
34.17279865378829
 20
-8.67911834998279
 10
34.11476955427568
 20
-8.710356847110734
 10
34.06695156236756
 20
-8.732163416590945
 10
34.03029987518888
 20
-8.74610007291533
 10
34.00424058295548
 20
-8.75415837851726
 10
33.98909709173061
 20
-8.757822499836296
 10
33.98130246750189
 20
-8.759186337913311
 10
33.77696784415503
 20
-8.780606874303398
 10
33.6406220759719
 20
-8.803979016884913
 10
33.52540939076152
 20
-8.830919324174822
 10
33.40277768693723
 20
-8.867365147777363
 10
33.28759646246328
 20
-8.909393733155593
 10
33.19759776968826
 20
-8.947862796328979
 10
33.09581850464612
 20
-8.997776558023531
 10
32.98164294494211
 20
-9.062599995375038
 10
32.91992571552512
 20
-9.101895182008006
 10
32.85528622995592
 20
-9.146551729299595
 10
32.78798224036964
 20
-9.19718052167976
 10
32.71840810697545
 20
-9.254391579706304
 10
32.647117330851195
 20
-9.318760867036891
 10
32.574839642554785
 20
-9.3907862795028
 10
32.502487660295095
 20
-9.470833569068649
 10
32.431147458777005
 20
-9.559075372248095
 10
32.36204783649276
 20
-9.655429586815838
 10
32.296505227196306
 20
-9.75950643170951
 10
32.235845315778086
 20
-9.870575521916816
 10
32.18130799500588
 20
-9.98756387228975
 10
32.13394790359082
 20
-10.109091979692003
 10
32.09454633974259
 20
-10.233548206498622
 10
32.06354999640817
 20
-10.359193282193678
 10
32.04104716123549
 20
-10.484279606741502
 10
32.02678406850062
 20
-10.607166789412599
 10
32.02021567032245
 20
-10.72641662322074
 10
32.02057898627113
 20
-10.840856571203194
 10
32.026974963557805
 20
-10.94960845669894
 10
32.03844630234869
 20
-11.052085839125985
 10
32.054042586420024
 20
-11.147967859892686
 10
32.072868575304526
 20
-11.237158789780802
 10
32.09411533486322
 20
-11.319741714559504
 10
32.11707638895314
 20
-11.395932771896701
 10
32.14115225226883
 20
-11.466040018989089
 10
32.190759115626356
 20
-11.589495258976187
 10
32.24003902883719
 20
-11.693275986654971
 10
32.287247405212305
 20
-11.780507591981543
 10
32.35226564837019
 20
-11.886354407586575
 10
32.42676458380048
 20
-11.992345196020448
 10
32.5141024983057
 20
-12.100955452590668
 10
32.617509032111386
 20
-12.213070850026991
 10
32.74349049272519
 20
-12.33425031477731
 10
32.74986889769223
 20
-12.34139022813684
 10
32.763526044721154
 20
-12.35931272212675
 10
32.783623421304995
 20
-12.390161234378994
 10
32.808982230569484
 20
-12.436030566280696
 10
32.836878993867344
 20
-12.496383490580591
 10
32.864680315938955
 20
-12.569757382966557
 10
32.89116562860627
 20
-12.657959468036553
 10
32.9132848265652
 20
-12.755945398094994
 10
32.930272270666656
 20
-12.865982871611825
 10
32.940434782769465
 20
-12.98677892829471
 10
32.94230532344053
 20
-13.116772195357438
 10
32.93468586948837
 20
-13.254181282159172
 10
32.91668032429672
 20
-13.397055848694507
 10
32.8891476961422
 20
-13.537194880581765
 10
32.85134057210758
 20
-13.678584467821306
 10
32.80334045501595
 20
-13.819345944316783
 10
32.745517659688154
 20
-13.957638170378955
 10
32.67852238327253
 20
-14.091700654275623
 10
32.60326942033476
 20
-14.219894695869684
 10
32.52091684667875
 20
-14.34074175717227
 10
32.4328390631936
 20
-14.452958295751847
 10
32.34059464678357
 20
-14.555486341343126
 10
32.24588949006514
 20
-14.647519149262438
 10
32.15053571262041
 20
-14.728521320704145
 10
32.05640677586906
 20
-14.798242831696934
 10
31.96538910129588
 20
-14.856726447299346
 10
31.879330226026454
 20
-14.904307995841116
 10
31.79671080974138
 20
-14.943010297270686
 10
31.723207283687707
 20
-14.971539166181193
 10
31.660357744781347
 20
-14.991200256160894
 10
31.6093233130563
 20
-15.003538555731737
 10
31.570743985586866
 20
-15.010269101383528
 10
31.54367767884604
 20
-15.013238527854568
 10
31.528154043055938
 20
-15.013965284208247
 10
31.526349167920824
 20
-15.013976724440397
 10
31.517615357287916
 20
-15.013664530185764
 10
31.314526051192676
 20
-14.996137314549797
 10
31.194974968837876
 20
-14.993211992984396
 10
31.056518714326057
 20
-14.998159947311198
 10
30.92842040236613
 20
-15.011000740503459
 10
30.80661011496429
 20
-15.030822230738671
 10
30.71036530727721
 20
-15.051913822877104
 10
30.60032165292069
 20
-15.082144672907969
 10
30.475238766848662
 20
-15.124840177846604
 10
30.406844390416598
 20
-15.152147738498595
 10
30.334573624063644
 20
-15.184224122306972
 10
30.258574974659943
 20
-15.221721117288237
 10
30.179133866087604
 20
-15.265313388637207
 10
30.096700916957843
 20
-15.315669139664386
 10
30.011916520699632
 20
-15.373409033985723
 10
29.925626565462192
 20
-15.439053338788735
 10
29.838883073324606
 20
-15.51295958130276
 10
29.752923519446757
 20
-15.595256174002579
 10
29.669124307737242
 20
-15.68578089438159
 10
29.588927737244237
 20
-15.784035713625261
 10
29.513747474622903
 20
-15.889169855302175
 10
29.44486372867105
 20
-15.999999999999769
 10
29.38332388083373
 20
-16.115070146250694
 10
29.32986517464693
 20
-16.232745234382673
 10
29.28487229038413
 20
-16.35132491134783
 10
29.248375188720154
 20
-16.46915951769489
 10
29.220084025736103
 20
-16.584750971401
 10
29.19945108828958
 20
-16.696826160462162
 10
29.185746430335307
 20
-16.80437760619049
 10
29.1781344131703
 20
-16.90667299435531
 10
29.175741528118976
 20
-17.003239897924157
 10
29.17771006800813
 20
-17.09383405172731
 10
29.183236042490435
 20
-17.17839931025488
 10
29.19159246242733
 20
-17.25702582177171
 10
29.20214060940335
 20
-17.329910869563882
 10
29.22770666053521
 20
-17.459583578950117
 10
29.256547803608743
 20
-17.56999960416359
 10
29.286404352854035
 20
-17.663895848672336
 10
29.330143582470395
 20
-17.779297397122242
 10
29.38307228534126
 20
-17.89665418605754
 10
29.448015358453365
 20
-18.019034796941
 10
29.527974397332905
 20
-18.147941482830287
 10
29.62826119112773
 20
-18.29004722948953
 10
29.633180443121514
 20
-18.29828183065297
 10
29.643217917192302
 20
-18.318514376202657
 10
29.657127175070105
 20
-18.352664161210594
 10
29.67335233070062
 20
-18.402561912487194
 10
29.689320044819247
 20
-18.4671607457433
 10
29.70272184484514
 20
-18.54452361078398
 10
29.71201742662932
 20
-18.63619443696963
 10
29.715168194653515
 20
-18.73663953646927
 10
29.710993342878968
 20
-18.84794166443441
 10
29.69807594300216
 20
-18.968509849652875
 10
29.675272061554995
 20
-19.09653256538674
 10
29.641743663216797
 20
-19.230033366938002
 10
29.596981224012865
 20
-19.36692726797434
 10
29.54338336438736
 20
-19.49932406771698
 10
29.479461174512128
 20
-19.63099700773245
 10
29.40565134232765
 20
-19.76011707465141
 10
29.322666991826452
 20
-19.884946927289608
 10
29.231480729924524
 20
-20.00388153801172
 10
29.133301828985836
 20
-20.115485686280007
 10
29.0295480138585
 20
-20.21852758503951
 10
28.921812382461844
 20
-20.312007963937077
 10
28.811826035242678
 20
-20.395183987557715
 10
28.701417012632632
 20
-20.467587445718586
 10
28.592466129877028
 20
-20.529036708486597
 10
28.486860238767477
 20
-20.579641979667663
 10
28.386443308912142
 20
-20.61980339147121
 10
28.29296545994235
 20
-20.650201430695937
 10
28.204553012335673
 20
-20.67253450363561
 10
28.127022496693087
 20
-20.686608743888975
 10
28.061635737515726
 20
-20.693998057585446
 10
28.009238692360416
 20
-20.69643971754309
 10
27.999997523634182
 20
-20.696493107338014
 10
27.962401672353366
 20
-20.695279886403164
 10
27.938451717941145
 20
-20.692961781309023
 10
27.92561386878233
 20
-20.6909167586127
 10
27.91518240484848
 20
-20.688409209322266
 10
27.720310737296426
 20
-20.633125122109924
 10
27.583498109379455
 20
-20.60400622631135
 10
27.4650832863907
 20
-20.58622929409862
 10
27.33604310332479
 20
-20.574706717677895
 10
27.211867950522134
 20
-20.571322675196324
 10
27.112718976109
 20
-20.574054824647234
 10
26.998202272910554
 20
-20.583267531749748
 10
26.866483467172696
 20
-20.60203434787359
 10
26.793730878543453
 20
-20.616237662170256
 10
26.716266960303322
 20
-20.634448334699435
 10
26.634124669746832
 20
-20.657339563562854
 10
26.547470064234336
 20
-20.685631243881545
 10
26.456635656448366
 20
-20.72006547605467
 10
26.36215197055795
 20
-20.761369696459628
 10
26.264772086365863
 20
-20.810206560395194
 10
26.165482526230925
 20
-20.86711189354517
 10
26.06549333984484
 20
-20.93242521013383
 10
25.966201464219612
 20
-21.00622100211431
 10
25.869124947081488
 20
-21.088252191304914
 10
25.775811291336396
 20
-21.177918349904502
 10
25.687729819186597
 20
-21.274269218549417
 10
25.606163436609933
 20
-21.376048314541542
 10
25.53211721362641
 20
-21.48177319497083
 10
25.466258515640767
 20
-21.589840764353983
 10
25.408896628665314
 20
-21.698640751481857
 10
25.360001242230098
 20
-21.806659887055808
 10
25.319251699759857
 20
-21.91256321547126
 10
25.286104704621597
 20
-22.015245514905253
 10
25.259867711856224
 20
-22.113852535329713
 10
25.239767661866725
 20
-22.20777680217395
 10
25.225008498935452
 20
-22.296635298152896
 10
25.2148146733644
 20
-22.38023665910076
 10
25.208460711749183
 20
-22.45854436933705
 10
25.20528869658698
 20
-22.53164065118002
 10
25.20623773293195
 20
-22.662931305050783
 10
25.21390077982709
 20
-22.77603161500307
 10
25.232330149401257
 20
-22.916531463130546
 10
25.254234181015576
 20
-23.028568170906286
 10
25.290816436713364
 20
-23.168433137369096
 10
25.334338391521268
 20
-23.29850020842383
 10
25.400969603932786
 20
-23.45940749946797
 10
25.44169304664743
 20
-23.547476852920774
 10
25.44471266289441
 20
-23.55544578310478
 10
25.450342552626488
 20
-23.574833578011503
 10
25.457369430654897
 20
-23.60796271682072
 10
25.464122815014875
 20
-23.656896786583115
 10
25.468280211787945
 20
-23.720346539717166
 10
25.46789137236638
 20
-23.79610429668676
 10
25.461143757579503
 20
-23.885375309713144
 10
25.44695975301229
 20
-23.982498421682966
 10
25.423786200542597
 20
-24.0892444430732
 10
25.39047318014166
 20
-24.20382435616122
 10
25.346174774314953
 20
-24.324271617698958
 10
25.29037305157622
 20
-24.448503290899996
 10
25.222891635009713
 20
-24.574379935767254
 10
25.14741522190735
 20
-24.694577017901473
 10
25.061807439969964
 20
-24.812489762286063
 10
24.966786379196563
 20
-24.926379576529413
 10
24.86332869472409
 20
-25.03464188502597
 10
24.752646442150322
 20
-25.13584364001103
 10
24.636158630477247
 20
-25.22875676936369
 10
24.515458076933513
 20
-25.312386933725296
 10
24.392274201318823
 20
-25.38599701684236
 10
24.26843243662094
 20
-25.449124833897315
 10
24.145810950483835
 20
-25.50159460554663
 10
24.026295359872723
 20
-25.54352180119608
 10
23.911732066200457
 20
-25.575310990651918
 10
23.803880719559345
 20
-25.597646338508774
 10
23.704366102490827
 20
-25.61147429697235
 10
23.610969179818667
 20
-25.618115194985375
 10
23.565319513103027
 20
-25.618932699658984
 10
23.490887813720217
 20
-25.616436296296353
 10
23.429868431329066
 20
-25.61029892635656
 10
23.382592859244124
 20
-25.602389761495633
 10
23.347669565655348
 20
-25.594184883042235
 10
23.326138567784696
 20
-25.58765168313142
 10
23.315061201613542
 20
-25.583538107061905
 10
23.124302036654807
 20
-25.487842841097297
 10
22.994718719844307
 20
-25.433141318579715
 10
22.881088777104058
 20
-25.39315589137513
 10
22.75572189915284
 20
-25.357375376207173
 10
22.633585749586324
 20
-25.330602919403862
 10
22.53502185020769
 20
-25.314633855365905
 10
22.420032029820725
 20
-25.30222065897334
 10
22.286238708129908
 20
-25.296079357680398
 10
22.2116298168227
 20
-25.29650862633129
 10
22.13162358421191
 20
-25.300038668532704
 10
22.04613458250308
 20
-25.307343666754775
 10
21.95520252297508
 20
-25.319167681914756
 10
21.859029849616725
 20
-25.336305885213356
 10
21.758019538654647
 20
-25.359573080055508
 10
21.652807974012344
 20
-25.38975779677785
 10
21.54428598291408
 20
-25.427562223760187
 10
21.433600130719125
 20
-25.473531365892264
 10
21.322127060115907
 20
-25.527978732466124
 10
21.211416737866085
 20
-25.590919577624824
 10
21.10310600901167
 20
-25.662024761919717
 10
20.99881082904029
 20
-25.740607188399046
 10
20.90001184849427
 20
-25.825647834484414
 10
20.807951208032748
 20
-25.915860518086493
 10
20.723556866924092
 20
-26.009786071038548
 10
20.647404770427443
 20
-26.105900456293202
 10
20.579720750455472
 20
-26.20271959483837
 10
20.520416156469164
 20
-26.298886460601775
 10
20.46914614714646
 20
-26.393231805930018
 10
20.425378174895982
 20
-26.484806377362844
 10
20.388459850081812
 20
-26.572887716918736
 10
20.35767869445357
 20
-26.656967667099998
 10
20.332309899304494
 20
-26.736727549376592
 10
20.31165117461862
 20
-26.812007294527064
 10
20.28189556165922
 20
-26.949088445480008
 10
20.263891796414942
 20
-27.068944359160866
 10
20.254133098842207
 20
-27.173108713386036
 10
20.249478760302637
 20
-27.30393569009257
 10
20.25351809048233
 20
-27.440155693510036
 10
20.26777690525181
 20
-27.58564824358642
 10
20.292448067790502
 20
-27.73236386816079
 10
20.336594779952375
 20
-27.92024101680917
 10
20.338166367862378
 20
-27.930420287421835
 10
20.33989940512133
 20
-27.953170887859716
 10
20.340009588082822
 20
-27.990776383023295
 10
20.336543353271907
 20
-28.041596129924713
 10
20.327310137461218
 20
-28.107605869668305
 10
20.310938775398526
 20
-28.18449910951043
 10
20.28542563184691
 20
-28.273137547253242
 10
20.250940465803506
 20
-28.367621460658775
 10
20.205612576979227
 20
-28.46944740860497
 10
20.148720316624917
 20
-28.576610734126792
 10
20.07987756163437
 20
-28.687003982148
 10
19.999043505020666
 20
-28.798480755666034
 10
19.906522624712125
 20
-28.90891643466106
 10
19.80747990533754
 20
-29.011879862844104
 10
19.69912907512943
 20
-29.110321331372297
 10
19.582557184689428
 20
-29.202706492863015
 10
19.459073622546555
 20
-29.287689113422594
 10
19.330179235131162
 20
-29.36414246368903
 10
19.197531177766283
 20
-29.431185603867917
 10
19.06290419967205
 20
-29.488204069653086
 10
18.92814910562414
 20
-29.53486452860243
 10
18.79514915957848
 20
-29.57112304404886
 10
18.665775195601487
 20
-29.59722664704553
 10
18.54184017143515
 20
-29.6137079646779
 10
18.42505382882036
 20
-29.621372668633146
 10
18.37218941324745
 20
-29.622221956942848
 10
18.268777244099905
 20
-29.618859727851518
 10
18.172246186230808
 20
-29.609200798271118
 10
18.088453809995645
 20
-29.594998377270898
 10
18.018182661373988
 20
-29.57814642523132
 10
17.961801223675625
 20
-29.56058776403456
 10
17.919192405144045
 20
-29.544199353240963
 10
17.888684145877153
 20
-29.53014074964995
 10
17.870656439535693
 20
-29.520406036404236
 10
17.861632260781818
 20
-29.51479549977912
 10
17.692685024879918
 20
-29.38485058236603
 10
17.575091523201866
 20
-29.306256738298234
 10
17.470393149611805
 20
-29.2452352405984
 10
17.35324096908861
 20
-29.18617295086359
 10
17.237531993813487
 20
-29.136661745873248
 10
17.143067534917034
 20
-29.10231038190248
 10
17.03167406382434
 20
-29.068422004343553
 10
16.90050029456183
 20
-29.03725961388575
 10
16.826634218547543
 20
-29.02372104395219
 10
16.746858726362664
 20
-29.01226054952641
 10
16.660970767659236
 20
-29.00353255467074
 10
16.5688804326936
 20
-28.998283183646695
 10
16.470651794242855
 20
-28.99733794574258
 10
16.366546017503545
 20
-29.001576701365103
 10
16.257061828540277
 20
-29.011893349417743
 10
16.14296632281721
 20
-29.02913939456638
 10
16.025307631297125
 20
-29.054053552230435
 10
15.905401079002818
 20
-29.08718358791505
 10
15.784783035969731
 20
-29.128810783875068
 10
15.66513194148871
 20
-29.178890290701922
 10
15.548163140519556
 20
-29.237020519983755
 10
15.435511174501308
 20
-29.302450725318984
 10
15.328617439931838
 20
-29.37412854278763
 10
15.228640764574443
 20
-29.45078066683365
 10
15.136403319884364
 20
-29.53101294135048
 10
15.052376208590974
 20
-29.613413230552187
 10
14.976700892286017
 20
-29.696642067226342
 10
14.909236837864203
 20
-29.779501035570853
 10
14.849623482425951
 20
-29.860974975865684
 10
14.797345494070774
 20
-29.94024941743598
 10
14.75179311317883
 20
-30.01670805070931
 10
14.712312742937218
 20
-30.089916394263664
 10
14.678245943032849
 20
-30.159597580692868
 10
14.623851332795148
 20
-30.287895630429347
 10
14.584067394755607
 20
-30.401525591341137
 10
14.555200055078716
 20
-30.5013602398101
 10
14.526309530293977
 20
-30.628162780544603
 10
14.504836158982483
 20
-30.761866694699975
 10
14.491538349680743
 20
-30.906572965887133
 10
14.48811100802491
 20
-31.0544909783788
 10
14.49589454013504
 20
-31.24636108501364
 10
14.495508129205623
 20
-31.256675479065287
 10
14.492893355823181
 20
-31.27939402149351
 10
14.485865439343579
 20
-31.316394561974924
 10
14.472818043958899
 20
-31.365689831772173
 10
14.451225765085931
 20
-31.42880559909927
 10
14.420559863942945
 20
-31.501249960417496
 10
14.37868983246647
 20
-31.58349027840225
 10
14.326902122446437
 20
-31.669763779101537
 10
14.263076243194616
 20
-31.761186818706086
 10
14.186884285163808
 20
-31.855654123750327
 10
14.098347264392547
 20
-31.951023233475432
 10
13.997832615508598
 20
-32.045179035378965
 10
13.886042637044785
 20
-32.13609336261497
 10
13.769268647299313
 20
-32.21843046553623
 10
13.644215506213934
 20
-32.2945602047517
 10
13.512241785751575
 20
-32.36318252622005
 10
13.374888641161197
 20
-32.42322427733558
 10
13.23384353395839
 20
-32.473864164373225
 10
13.090900732412292
 20
-32.51455188677564
 10
12.947919373288087
 20
-32.54502109738593
 10
12.80677989560035
 20
-32.56529590680245
 10
12.669339666538956
 20
-32.575690720600235
 10
12.588257732778708
 20
-32.577423767356244
 10
12.460478756795311
 20
-32.57329436345198
 10
12.340817355180953
 20
-32.56140093170016
 10
12.230686187085162
 20
-32.54299703078522
 10
12.131281395677238
 20
-32.5195357671781
 10
12.040007921196354
 20
-32.49140746618982
 10
11.962177445185787
 20
-32.46148535269951
 10
11.898148764504066
 20
-32.431779151819796
 10
11.847859210003511
 20
-32.40425410409281
 10
11.810774400451422
 20
-32.38069924919094
 10
11.785013390123769
 20
-32.361908202573325
 10
11.770386748639902
 20
-32.34975993114413
 10
11.763368852826096
 20
-32.343172663822884
 10
11.621840678215404
 20
-32.18333622457132
 10
11.520617520127066
 20
-32.08342172777378
 10
11.428725625073474
 20
-32.00330728185601
 10
11.324092142650944
 20
-31.922785982363244
 10
11.219026031354112
 20
-31.852005751494843
 10
11.132075867106446
 20
-31.800248943796632
 10
11.028274438645894
 20
-31.74579912111703
 10
10.904382946749694
 20
-31.690384229185234
 10
10.83386576383381
 20
-31.66317281825208
 10
10.75712040851693
 20
-31.636933944187163
 10
10.673830589095491
 20
-31.61228184393363
 10
10.58377735073881
 20
-31.589942213091604
 10
10.486882050626791
 20
-31.570746900335905
 10
10.383253668321391
 20
-31.55561620697852
 10
10.27323590079519
 20
-31.545525415764175
 10
10.157447098663571
 20
-31.541453577302043
 10
10.036804174824967
 20
-31.544315380930897
 10
9.912521144085682
 20
-31.554881021203038
 10
9.78607493173228
 20
-31.573693572696385
 10
9.659135991866615
 20
-31.6009970385404
 10
9.533468470904573
 20
-31.63668918119822
 10
9.410812214443212
 20
-31.680310257937812
 10
9.29276419054364
 20
-31.731072064170405
 10
9.180677714727322
 20
-31.78792312455517
 10
9.07559371253392
 20
-31.84963834232986
 10
8.978210665474727
 20
-31.914917413145496
 10
8.888891607779307
 20
-31.982476759132737
 10
8.807700174630366
 20
-32.05112376676787
 10
8.734454619172467
 20
-32.119807758785086
 10
8.668788826979572
 20
-32.18764742228458
 10
8.610211608747699
 20
-32.253938118918605
 10
8.558158648820779
 20
-32.3181442974174
 10
8.512034417795812
 20
-32.3798824456789
 10
8.435212856523634
 20
-32.49504850847133
 10
8.375325867971803
 20
-32.598564576935466
 10
8.328614205190632
 20
-32.690624929083896
 10
8.276819755181991
 20
-32.8089894234157
 10
8.23091396350215
 20
-32.935477874058435
 10
8.190859561925544
 20
-33.07426197468081
 10
8.159763505046177
 20
-33.21808386846468
 10
8.131267099152762
 20
-33.407013646355054
 10
8.128928414432453
 20
-33.41708934223423
 10
8.122040957750148
 20
-33.43895062804956
 10
8.10810856446631
 20
-33.47400164537481
 10
8.085932666192395
 20
-33.51998088741844
 10
8.05274417746522
 20
-33.57790881514181
 10
8.008877312737527
 20
-33.64327146633384
 10
7.952151530995178
 20
-33.71612497670449
 10
7.884924160586469
 20
-33.791053027920405
 10
7.804901229062526
 20
-33.86875128514945
 10
7.712160519819575
 20
-33.94709044694525
 10
7.607129434259456
 20
-34.0239709826033
 10
7.490570285330735
 20
-34.0973860010983
 10
7.363557643930579
 20
-34.165477560513395
 10
7.233281129552327
 20
-34.224199138876784
 10
7.096055756911169
 20
-34.27525418206504
 10
6.953462198469999
 20
-34.31762421558778
 10
6.807217314744205
 20
-34.35054820195909
 10
6.659133799864704
 20
-34.373540157123244
 10
6.511077768177961
 20
-34.38640043818102
 10
6.396441527472887
 20
-34.389446685406604
 10
6.253066394496869
 20
-34.384660362438744
 10
6.114825543000085
 20
-34.370708856661714
 10
5.983392462852582
 20
-34.3484627929186
 10
5.860288981313124
 20
-34.319041555702164
 10
5.746847202566832
 20
-34.28378617435583
 10
5.644174698932438
 20
-34.244225546912524
 10
5.553123436259503
 20
-34.202035782651585
 10
5.4711157603885265
 20
-34.15712928471348
 10
5.402670566127261
 20
-34.11335738822129
 10
5.347692280223897
 20
-34.07274842194993
 10
5.30567606131439
 20
-34.03718665632945
 10
5.27568226409685
 20
-34.008265098543994
 10
5.2556912273094385
 20
-33.98635649284051
 10
5.24467692226691
 20
-33.97263675618467
 10
5.239821828656597
 20
-33.96574939439902
 10
5.137496826364507
 20
-33.79201405114046
 10
5.062080081366423
 20
-33.68057030314007
 10
4.97460622634601
 20
-33.567784111750335
 10
4.886400922700653
 20
-33.46841842222171
 10
4.795868257847732
 20
-33.378617043160325
 10
4.719625029618229
 20
-33.311063425502276
 10
4.62719502868786
 20
-33.23770646009297
 10
4.515052221207499
 20
-33.15967338170957
 10
4.450405362889597
 20
-33.119568650987674
 10
4.37941793044394
 20
-33.07928452961211
 10
4.3016683011538
 20
-33.03937558075919
 10
4.216812935159084
 20
-33.000524857371914
 10
4.124630274265369
 20
-32.9635459686238
 10
4.025070995086976
 20
-32.929373408995254
 10
3.918310560241899
 20
-32.89903700764488
 10
3.8047973822457193
 20
-32.87361739992073
 10
3.685287556636341
 20
-32.85418195039357
 10
3.5608560485014515
 20
-32.84170460139015
 10
3.4328755470480017
 20
-32.836978046497286
 10
3.3029586087063425
 20
-32.84053101960034
 10
3.172865784517674
 20
-32.85256548560059
 10
3.0443903957298537
 20
-32.872926633071984
 10
2.9192367956191876
 20
-32.90111264263667
 10
2.798910925851483
 20
-32.93632283332553
 10
2.684638886255453
 20
-32.9775347647118
 10
2.5773222860155505
 20
-33.02359585761824
 10
2.477530935370956
 20
-33.07331436397052
 10
2.385526638377809
 20
-33.125537548251195
 10
2.301308051004938
 20
-33.17921000460465
 10
2.2246659394810813
 20
-33.23341019206815
 10
2.15523984346722
 20
-33.28736718811833
 10
2.0925699005026046
 20
-33.34046185165428
 10
2.03614039852548
 20
-33.39221723207023
 10
1.9398562377963287
 20
-33.490415047912386
 10
1.8622240382324085
 20
-33.580333259965094
 10
1.7995417917616676
 20
-33.661492233030266
 10
1.726965075039793
 20
-33.76735891386679
 10
1.6585579653537297
 20
-33.88224629339622
 10
1.5934886446258818
 20
-34.01024343491
 10
1.5323908729272007
 20
-34.15459504493604
 10
1.4728304241046573
 20
-34.323892898363866
 10
1.4687342887002912
 20
-34.333160011214645
 10
1.4581236802934956
 20
-34.35289010005306
 10
1.4381868215266314
 20
-34.38424310137569
 10
1.4081369809751882
 20
-34.424827862183605
 10
1.3650678019584859
 20
-34.475121708638525
 10
1.3101233476939236
 20
-34.53078057254993
 10
1.2411534562902613
 20
-34.59144299299257
 10
1.1614612289032946
 20
-34.65224140909831
 10
1.0686691692463266
 20
-34.71341803514888
 10
0.9632434125957237
 20
-34.77289442883202
 10
0.8459886219120454
 20
-34.82868514711775
 10
0.718021908039335
 20
-34.87895701027767
 10
0.5807401666155741
 20
-34.92208039917674
 10
0.44195135016046533
 20
-34.95541720629932
 10
0.2977235154452448
 20
-34.979944165491574
 10
0.1497972956870961
 20
-34.994949631168964
 10
2.1448624283651285e-14
 20
-35.0
 10
-0.14979729568707062
 20
-34.99494963116897
 10
-0.2977235154452196
 20
-34.979944165491574
 10
-0.4419513501604413
 20
-34.95541720629934
 10
-0.5807401666155514
 20
-34.92208039917674
 10
-0.712477217998911
 20
-34.88090701699796
 10
-0.8357163487325253
 20
-34.83310921075832
 10
-0.9492134370833676
 20
-34.780109111901574
 10
-1.051957886778678
 20
-34.72350394840694
 10
-1.1431995650807905
 20
-34.665025233029844
 10
-1.2224706930600193
 20
-34.60649184309398
 10
-1.2922467391661505
 20
-34.54735880746162
 10
-1.3489750531772486
 20
-34.49225336225589
 10
-1.3931972492078781
 20
-34.443120389325166
 10
-1.4258292866021267
 20
-34.401663806242944
 10
-1.448158351916103
 20
-34.3691877765222
 10
-1.4622536450849901
 20
-34.34561053534437
 10
-1.4694699583831303
 20
-34.33162186678254
 10
-1.4726648224458656
 20
-34.324313156133876
 10
-1.540153207369782
 20
-34.13459632929352
 10
-1.5934886446259122
 20
-34.01024343491009
 10
-1.6585579653536136
 20
-33.882246293396285
 10
-1.7269650750397831
 20
-33.76735891386695
 10
-1.7995417917616325
 20
-33.661492233030465
 10
-1.8622240382323438
 20
-33.580333259965315
 10
-1.9398562377960151
 20
-33.490415047912634
 10
-2.0361403985250908
 20
-33.39221723207048
 10
-2.0925699005021876
 20
-33.34046185165456
 10
-2.155239843466929
 20
-33.28736718811848
 10
-2.2246659394807637
 20
-33.2334101920683
 10
-2.301308051004607
 20
-33.17921000460482
 10
-2.385526638377436
 20
-33.12553754825133
 10
-2.4775309353706216
 20
-33.073314363970766
 10
-2.577322286015173
 20
-33.02359585761846
 10
-2.6846388862550463
 20
-32.977534764712004
 10
-2.7989109258510503
 20
-32.93632283332572
 10
-2.919236795618429
 20
-32.90111264263687
 10
-3.0443903957293736
 20
-32.8729266330721
 10
-3.1728657845171835
 20
-32.85256548560068
 10
-3.3029586087058465
 20
-32.840531019600355
 10
-3.43287554704751
 20
-32.836978046497265
 10
-3.5608560485009697
 20
-32.841704601390134
 10
-3.68528755663587
 20
-32.85418195039357
 10
-3.8047973822452654
 20
-32.873617399920704
 10
-3.9183105602414674
 20
-32.89903700764483
 10
-4.025070995086576
 20
-32.92937340899515
 10
-4.124630274264978
 20
-32.963545968623734
 10
-4.216812935158729
 20
-33.00052485737182
 10
-4.3016683011535335
 20
-33.03937558075896
 10
-4.37941793044371
 20
-33.07928452961186
 10
-4.4504053628893825
 20
-33.11956865098745
 10
-4.515052221207307
 20
-33.159673381709354
 10
-4.627195028687715
 20
-33.23770646009277
 10
-4.719625029618135
 20
-33.31106342550206
 10
-4.795868257847553
 20
-33.378617043160254
 10
-4.886400922700503
 20
-33.46841842222165
 10
-4.974606226345994
 20
-33.5677841117502
 10
-5.0620800813664335
 20
-33.68057030313998
 10
-5.148836583681735
 20
-33.810092169232945
 10
-5.2388874665591985
 20
-33.964296896211025
 10
-5.244676922266897
 20
-33.97263675618468
 10
-5.258866133520092
 20
-33.99003912485499
 10
-5.284421302253486
 20
-34.01708737573287
 10
-5.321657597474012
 20
-34.05127977392625
 10
-5.373519755149783
 20
-34.09253491674586
 10
-5.43805802060326
 20
-34.136801999024314
 10
-5.517315519270497
 20
-34.1833195203781
 10
-5.60712395499145
 20
-34.227933214482114
 10
-5.709864480244938
 20
-34.27043151067374
 10
-5.824684780225354
 20
-34.30886221935462
 10
-5.950417860004688
 20
-34.3414287562882
 10
-6.085618888317091
 20
-34.36654336416549
 10
-6.228606996305668
 20
-34.382871268095094
 10
-6.371214813943314
 20
-34.38930251797444
 10
-6.396441527472863
 20
-34.389446685406604
 10
-6.543166477383625
 20
-34.38446644779248
 10
-6.6913883985873355
 20
-34.369401343724164
 10
-6.839229775809732
 20
-34.34422326581854
 10
-6.984832425007432
 20
-34.309194737855
 10
-7.12640093586319
 20
-34.26486272027933
 10
-7.262244707931301
 20
-34.21204592756568
 10
-7.3908177494110365
 20
-34.151815868576655
 10
-7.510755439827742
 20
-34.085471883538794
 10
-7.620907503428253
 20
-34.01451049343371
 10
-7.720366496170483
 20
-33.94058938538369
 10
-7.808491172197602
 20
-33.865486309878214
 10
-7.884924160586461
 20
-33.79105302792042
 10
-7.9496034426099484
 20
-33.71916415807276
 10
-8.004824604257381
 20
-33.648852179345326
 10
-8.048125618224695
 20
-33.585288839857135
 10
-8.080463081448165
 20
-33.530237832476125
 10
-8.103110795304927
 20
-33.48513262611005
 10
-8.118078432683529
 20
-33.44972723037519
 10
-8.126247599923062
 20
-33.426303003814404
 10
-8.129920650806069
 20
-33.413226632397134
 10
-8.131632658820257
 20
-33.4049711847988
 10
-8.161776798395856
 20
-33.20717485487018
 10
-8.190859561925466
 20
-33.07426197468086
 10
-8.230913963502191
 20
-32.93547787405857
 10
-8.276819755182006
 20
-32.80898942341587
 10
-8.328614205190481
 20
-32.69062492908403
 10
-8.375325867971636
 20
-32.598564576935615
 10
-8.435212856523433
 20
-32.49504850847149
 10
-8.512034417795727
 20
-32.379882445679186
 10
-8.558158648820662
 20
-32.318144297417696
 10
-8.610211608747543
 20
-32.253938118918896
 10
-8.668788826979391
 20
-32.1876474222849
 10
-8.734454619171984
 20
-32.119807758785456
 10
-8.807700174630114
 20
-32.05112376676818
 10
-8.888891607779025
 20
-31.98247675913305
 10
-8.978210665474414
 20
-31.914917413145808
 10
-9.075593712533509
 20
-31.849638342330074
 10
-9.180677714726887
 20
-31.787923124555363
 10
-9.292764190543194
 20
-31.731072064170597
 10
-9.410812214442748
 20
-31.680310257937975
 10
-9.533468470904108
 20
-31.636689181198392
 10
-9.659135991865838
 20
-31.600997038540626
 10
-9.786074931731497
 20
-31.573693572696556
 10
-9.91252114408491
 20
-31.554881021203187
 10
-10.036804174824205
 20
-31.544315380930904
 10
-10.157447098663122
 20
-31.541453577302
 10
-10.273235900794763
 20
-31.54552541576411
 10
-10.383253668320991
 20
-31.55561620697842
 10
-10.486882050626162
 20
-31.570746900335877
 10
-10.58377735073847
 20
-31.589942213091447
 10
-10.673830589095182
 20
-31.612281843933474
 10
-10.757120408516654
 20
-31.63693394418697
 10
-10.833865763833565
 20
-31.66317281825188
 10
-10.904382946749406
 20
-31.690384229185206
 10
-11.028274438645647
 20
-31.74579912111699
 10
-11.132075867106225
 20
-31.800248943796603
 10
-11.219026031353916
 20
-31.852005751494822
 10
-11.324092142650873
 20
-31.922785982363095
 10
-11.42872562507344
 20
-32.00330728185588
 10
-11.535227859620754
 20
-32.09705138803996
 10
-11.644263255015765
 20
-32.20727530376948
 10
-11.761105077201867
 20
-32.340825405235705
 10
-11.767891000453153
 20
-32.34750385742663
 10
-11.785013390123758
 20
-32.36190820257333
 10
-11.81471898734991
 20
-32.38337301429134
 10
-11.859164147687139
 20
-32.41082851008847
 10
-11.91795283061284
 20
-32.441533745138734
 10
-11.989757000388131
 20
-32.472788944332514
 10
-12.076439035441126
 20
-32.50346000546707
 10
-12.173116180496704
 20
-32.53025750362709
 10
-12.28208738655675
 20
-32.55252343398281
 10
-12.402145144900238
 20
-32.56850289284733
 10
-12.531802570888967
 20
-32.576653514745914
 10
-12.588257732778683
 20
-32.57742376735623
 10
-12.728524929994556
 20
-32.57235329009226
 10
-12.873932974772393
 20
-32.556857993313585
 10
-13.016187544398448
 20
-32.5317290640495
 10
-13.159384796325984
 20
-32.49635781619367
 10
-13.301648973807191
 20
-32.45085944743742
 10
-13.44114660957138
 20
-32.395637322882216
 10
-13.57612941567015
 20
-32.33137335246825
 10
-13.704975155241868
 20
-32.25901203838643
 10
-13.826225696378918
 20
-32.17973850806966
 10
-13.93862148244776
 20
-32.09495091356889
 10
-14.041131699609904
 20
-32.00622762848537
 10
-14.132979476582872
 20
-31.915289698456988
 10
-14.213661508091723
 20
-31.82395898577922
 10
-14.28296154361705
 20
-31.734112370387997
 10
-14.340957213960833
 20
-31.647632190121904
 10
-14.389826959191284
 20
-31.562964075844
 10
-14.427546912914718
 20
-31.48591710267845
 10
-14.455186538300811
 20
-31.418243693093736
 10
-14.4740980013536
 20
-31.361394203990557
 10
-14.485865439343584
 20
-31.31639456197493
 10
-14.492405788882682
 20
-31.28257035204966
 10
-14.495106352829332
 20
-31.261502169212243
 10
-14.495843998432013
 20
-31.25036282797626
 10
-14.488027769036623
 20
-31.043339521765006
 10
-14.491538349680804
 20
-30.90657296588721
 10
-14.504836158982403
 20
-30.76186669470015
 10
-14.526309530293862
 20
-30.628162780544727
 10
-14.555200055078606
 20
-30.501360239810257
 10
-14.584067394755612
 20
-30.40152559134136
 10
-14.623851332794926
 20
-30.287895630429688
 10
-14.678245943032806
 20
-30.159597580693166
 10
-14.712312742937158
 20
-30.089916394263977
 10
-14.751793113178755
 20
-30.016708050709646
 10
-14.79734549407051
 20
-29.940249417436224
 10
-14.849623482425661
 20
-29.86097497586593
 10
-14.909236837863926
 20
-29.779501035571133
 10
-14.976700892285692
 20
-29.69664206722661
 10
-15.052376208590614
 20
-29.613413230552442
 10
-15.136403319883975
 20
-29.531012941350735
 10
-15.22864076457407
 20
-29.450780666833932
 10
-15.328617439931454
 20
-29.374128542787936
 10
-15.4355111745009
 20
-29.302450725319268
 10
-15.548163140519113
 20
-29.23702051998398
 10
-15.665131941488259
 20
-29.178890290702125
 10
-15.784783035968998
 20
-29.128810783875384
 10
-15.905401079002342
 20
-29.08718358791512
 10
-16.025307631296663
 20
-29.054053552230513
 10
-16.14296632281676
 20
-29.029139394566428
 10
-16.257061828539843
 20
-29.011893349417708
 10
-16.366546017503143
 20
-29.001576701365213
 10
-16.47065179424247
 20
-28.997337945742643
 10
-16.56888043269323
 20
-28.998283183646734
 10
-16.660970767658892
 20
-29.003532554670787
 10
-16.746858726362333
 20
-29.012260549526463
 10
-16.82663421854724
 20
-29.023721043952182
 10
-16.900500294561546
 20
-29.037259613885777
 10
-17.03167406382413
 20
-29.068422004343393
 10
-17.143067534916746
 20
-29.102310381902278
 10
-17.237531993813093
 20
-29.136661745873177
 10
-17.353240969088517
 20
-29.186172950863455
 10
-17.47039314961168
 20
-29.245235240598408
 10
-17.591910789698222
 20
-29.316828208323376
 10
-17.719085715439878
 20
-29.404023946243868
 10
-17.85837670953844
 20
-29.512522125551996
 10
-17.86631968588367
 20
-29.517803502146823
 10
-17.885906858943173
 20
-29.528728401166664
 10
-17.919192405144038
 20
-29.544199353240973
 10
-17.968088165722243
 20
-29.562755674164677
 10
-18.03168261186198
 20
-29.58177994981523
 10
-18.108158256645766
 20
-29.598872928328653
 10
-18.19912953543394
 20
-29.61256878600034
 10
-18.29917605671156
 20
-29.620563187094817
 10
-18.37218941324743
 20
-29.62222195694285
 10
-18.490089440668356
 20
-29.61806710135006
 10
-18.616533941302947
 20
-29.604783190839964
 10
-18.74964420361485
 20
-29.581333121650694
 10
-18.887398303469332
 20
-29.546995167278954
 10
-19.021818896197598
 20
-29.50350928901845
 10
-19.156683151779138
 20
-29.449621191093033
 10
-19.290125697141374
 20
-29.385576701107702
 10
-19.420344128708575
 20
-29.31190598527746
 10
-19.54564125861713
 20
-29.229410802253373
 10
-19.664464769028076
 20
-29.13914560980243
 10
-19.775443522956987
 20
-29.04239293435489
 10
-19.877419815071534
 20
-28.94063347844769
 10
-19.969476894310972
 20
-28.83551149565078
 10
-20.0509611465136
 20
-28.728795998279
 10
-20.121498382857272
 20
-28.622338369794942
 10
-20.181003729667722
 20
-28.518026916721034
 10
-20.229684643234805
 20
-28.417738791012408
 10
-20.26803655739214
 20
-28.323289503706853
 10
-20.297880642595377
 20
-28.2327966159021
 10
-20.318490588717516
 20
-28.152244019742326
 10
-20.331299863299968
 20
-28.083083644681196
 10
-20.33794893298767
 20
-28.026396387123516
 10
-20.340206584596956
 20
-27.982774060983072
 10
-20.339808438476016
 20
-27.95113956713871
 10
-20.33839207278032
 20
-27.93239256020744
 10
-20.33710580150108
 20
-27.922993430865695
 10
-20.29024915052845
 20
-27.721370989976567
 10
-20.267776905251754
 20
-27.5856482435865
 10
-20.255505069938796
 20
-27.468672840019096
 10
-20.24969335803024
 20
-27.341674296444126
 10
-20.251503470534196
 20
-27.219875109050953
 10
-20.258163437340112
 20
-27.122876390782007
 10
-20.2716670765142
 20
-27.011085284949797
 10
-20.29504574545115
 20
-26.8827733354849
 10
-20.31165117461848
 20
-26.812007294527323
 10
-20.332309899304533
 20
-26.73672754937673
 10
-20.357678694453533
 20
-26.65696766710034
 10
-20.38845985008175
 20
-26.572887716919098
 10
-20.425378174895883
 20
-26.484806377363217
 10
-20.469146147146013
 20
-26.393231805930792
 10
-20.520416156469015
 20
-26.298886460602173
 10
-20.579720750455298
 20
-26.20271959483878
 10
-20.647404770427183
 20
-26.105900456293586
 10
-20.7235568669238
 20
-26.00978607103892
 10
-20.807951208032673
 20
-25.91586051808667
 10
-20.900011848494145
 20
-25.82564783448456
 10
-20.99881082904014
 20
-25.740607188399167
 10
-21.10310600901102
 20
-25.66202476192018
 10
-21.211416737865424
 20
-25.590919577625264
 10
-21.322127060115264
 20
-25.527978732466572
 10
-21.43360013071849
 20
-25.473531365892672
 10
-21.5442859829137
 20
-25.427562223760432
 10
-21.65280797401196
 20
-25.38975779677804
 10
-21.75801953865427
 20
-25.359573080055664
 10
-21.85902984961636
 20
-25.336305885213488
 10
-21.95520252297471
 20
-25.31916768191474
 10
-22.04613458250274
 20
-25.307343666754743
 10
-22.13162358421159
 20
-25.300038668532643
 10
-22.21162981682241
 20
-25.29650862633122
 10
-22.28623870812963
 20
-25.296079357680288
 10
-22.42003202982065
 20
-25.302220658973084
 10
-22.535021850207336
 20
-25.31463385536609
 10
-22.633585749586004
 20
-25.330602919404033
 10
-22.755721899152682
 20
-25.35737537620721
 10
-22.881088777103983
 20
-25.393155891375027
 10
-23.013122108189116
 20
-25.440312816532206
 10
-23.153693750942324
 20
-25.501613438538648
 10
-23.310204810695982
 20
-25.581410172339346
 10
-23.319020898490585
 20
-25.585097680536936
 10
-23.340373041584442
 20
-25.592130041814958
 10
-23.37604153450061
 20
-25.601027312462822
 10
-23.427623815718178
 20
-25.60999188033153
 10
-23.493725458325265
 20
-25.616625950067856
 10
-23.56531951310301
 20
-25.618932699658988
 10
-23.656244520291075
 20
-25.61569788862682
 10
-23.755153186245877
 20
-25.605253569179624
 10
-23.86391633227017
 20
-25.586133803164955
 10
-23.980776839292652
 20
-25.55713668756807
 10
-24.103792654499422
 20
-25.517359141281478
 10
-24.230896617589988
 20
-25.466222534294193
 10
-24.359955552152037
 20
-25.40348795211779
 10
-24.48348995556609
 20
-25.332579269040327
 10
-24.605009692136253
 20
-25.25150285099742
 10
-24.72275626076141
 20
-25.160925555097883
 10
-24.83509747256361
 20
-25.061776657970803
 10
-24.940565605657188
 20
-24.955225826678852
 10
-25.03789167294425
 20
-24.842655682354707
 10
-25.126035153446907
 20
-24.725629517411523
 10
-25.204208587981434
 20
-24.60585478166894
 10
-25.271896499663978
 20
-24.48514299258973
 10
-25.32886816160792
 20
-24.365366742563726
 10
-25.375183789096447
 20
-24.248414462234937
 10
-25.41119376845827
 20
-24.136143539141734
 10
-25.43753052954649
 20
-24.030332262407075
 10
-25.45509258929179
 20
-23.932630826568012
 10
-25.46529867528444
 20
-23.84091743343532
 10
-25.46872873911195
 20
-23.761038875792092
 10
-25.467106578213865
 20
-23.694055207973538
 10
-25.462266901774164
 20
-23.64060016394125
 10
-25.456046265767476
 20
-23.600771125314253
 10
-25.44990016474448
 20
-23.57310558916672
 10
-25.445325925424576
 20
-23.557283688868207
 10
-25.442596954864804
 20
-23.549681218385206
 10
-25.358737939653015
 20
-23.36140877869667
 10
-25.31080592477797
 20
-23.231643808460767
 10
-25.276530572671547
 20
-23.11839654258542
 10
-25.246777729861126
 20
-22.993971459962935
 10
-25.225584940246616
 20
-22.873207300840523
 10
-25.213900779827025
 20
-22.77603161500328
 10
-25.206237732931882
 20
-22.662931305051018
 10
-25.205288696586905
 20
-22.53164065118029
 10
-25.208460711749076
 20
-22.458544369337332
 10
-25.214814673364298
 20
-22.38023665910106
 10
-25.22500849893532
 20
-22.29663529815321
 10
-25.239767661866598
 20
-22.207776802174287
 10
-25.259867711856284
 20
-22.113852535329876
 10
-25.286104704621607
 20
-22.01524551490542
 10
-25.31925169975985
 20
-21.912563215471422
 10
-25.36000124222981
 20
-21.806659887056462
 10
-25.40889662866499
 20
-21.698640751482525
 10
-25.466258515640355
 20
-21.58984076435463
 10
-25.532117213625966
 20
-21.481773194971485
 10
-25.60616343660963
 20
-21.376048314541936
 10
-25.687729819186266
 20
-21.274269218549794
 10
-25.775811291336023
 20
-21.177918349904825
 10
-25.869124947081104
 20
-21.088252191305216
 10
-25.966201464219196
 20
-21.006221002114557
 10
-26.065493339844426
 20
-20.932425210134042
 10
-26.16548252623028
 20
-20.867111893545513
 10
-26.264772086365216
 20
-20.810206560395443
 10
-26.362151970557324
 20
-20.761369696459827
 10
-26.456635656447926
 20
-20.720065476054607
 10
-26.547470064234016
 20
-20.68563124388172
 10
-26.634124669746534
 20
-20.657339563563028
 10
-26.71626696030296
 20
-20.63444833469929
 10
-26.793730878543144
 20
-20.61623766217023
 10
-26.866483467172404
 20
-20.602034347873538
 10
-26.998202272910312
 20
-20.583267531749684
 10
-27.11271897610891
 20
-20.574054824647
 10
-27.21186795052186
 20
-20.571322675196388
 10
-27.336043103324563
 20
-20.57470671767795
 10
-27.465083286390602
 20
-20.58622929409853
 10
-27.602811484944635
 20
-20.607561018488454
 10
-27.751609534182677
 20
-20.641056004963406
 10
-27.919544759380404
 20
-20.689569417885554
 10
-27.928917308214086
 20
-20.691523321942892
 10
-27.951267216822977
 20
-20.694389511218205
 10
-27.9880315003943
 20
-20.696370093763125
 10
-27.99999752363418
 20
-20.696493107338014
 10
-28.054363684801878
 20
-20.694537004772897
 10
-28.121095064781784
 20
-20.68745674796244
 10
-28.201095359834518
 20
-20.67327561349258
 10
-28.292965459942323
 20
-20.650201430695944
 10
-28.390677187904913
 20
-20.61826614458507
 10
-28.495863396534006
 20
-20.575663839186184
 10
-28.6065275221944
 20
-20.52164183235957
 10
-28.720567050089013
 20
-20.455781048211595
 10
-28.835836291358614
 20
-20.378006809326727
 10
-28.950206507892837
 20
-20.288589819485743
 10
-29.057065401493716
 20
-20.192532756924123
 10
-29.15951199939183
 20
-20.087151003775148
 10
-29.255995513742015
 20
-19.97350701251214
 10
-29.345149596827525
 20
-19.85288863915965
 10
-29.42582420487667
 20
-19.726778812621077
 10
-29.497112452255585
 20
-19.596820832304
 10
-29.558371941675414
 20
-19.464779982625938
 10
-29.609240118575517
 20
-19.332502192585608
 10
-29.649643264339883
 20
-19.201870490286787
 10
-29.67979880447205
 20
-19.074759999767945
 10
-29.70021065238133
 20
-18.95299219217806
 10
-29.711657319397457
 20
-18.838289022085817
 10
-29.71517246871217
 20
-18.732227430296117
 10
-29.712017426629313
 20
-18.63619443696965
 10
-29.70318668368626
 20
-18.547921660733948
 10
-29.690492610286178
 20
-18.47280495229192
 10
-29.67584765450081
 20
-18.411436640769434
 10
-29.661159316556795
 20
-18.363946619167642
 10
-29.647706449444726
 20
-18.328764088942396
 10
-29.63766822827125
 20
-18.30684505177951
 10
-29.631522317406343
 20
-18.295349128264
 10
-29.625998310880263
 20
-18.286681864454142
 10
-29.510324302420827
 20
-18.12110641052748
 10
-29.438380683438282
 20
-18.002052459487565
 10
-29.383072285341214
 20
-17.896654186057603
 10
-29.330143582470445
 20
-17.77929739712219
 10
-29.28640435285412
 20
-17.663895848672382
 10
-29.25654780360861
 20
-17.569999604163964
 10
-29.227706660535066
 20
-17.45958357895053
 10
-29.20214060940331
 20
-17.329910869564163
 10
-29.191592462427295
 20
-17.257025821772007
 10
-29.183236042490407
 20
-17.178399310255195
 10
-29.177710068008228
 20
-17.09383405172764
 10
-29.17574152811906
 20
-17.003239897924516
 10
-29.17813441317035
 20
-16.906672994355688
 10
-29.18574643033531
 20
-16.80437760619089
 10
-29.199451088289724
 20
-16.696826160462347
 10
-29.220084025736213
 20
-16.5847509714012
 10
-29.248375188720235
 20
-16.469159517695093
 10
-29.284872290383877
 20
-16.35132491134856
 10
-29.329865174646613
 20
-16.232745234383394
 10
-29.383323880833352
 20
-16.1150701462514
 10
-29.444863728670644
 20
-16.000000000000465
 10
-29.51374747462248
 20
-15.889169855302857
 10
-29.588927737243925
 20
-15.78403571362563
 10
-29.66912430773691
 20
-15.685780894381924
 10
-29.752923519446387
 20
-15.595256174002863
 10
-29.83888307332424
 20
-15.512959581303015
 10
-29.925626565461883
 20
-15.439053338789027
 10
-30.01191652069934
 20
-15.373409033986007
 10
-30.09670091695757
 20
-15.31566913966466
 10
-30.179133866087323
 20
-15.265313388637434
 10
-30.258574974659794
 20
-15.221721117288233
 10
-30.33457362406349
 20
-15.184224122306933
 10
-30.406844390416467
 20
-15.152147738498577
 10
-30.475238766848545
 20
-15.124840177846576
 10
-30.60032165292041
 20
-15.082144672908306
 10
-30.710365307276952
 20
-15.051913822877413
 10
-30.806610114964123
 20
-15.030822230738774
 10
-30.928420402365866
 20
-15.011000740503242
 10
-31.05651871432593
 20
-14.998159947310993
 10
-31.194974968837716
 20
-14.993211992984438
 10
-31.346590952975326
 20
-14.998005208971676
 10
-31.519801536503422
 20
-15.013803246732486
 10
-31.526349167920813
 20
-15.013976724440397
 10
-31.545372991597773
 20
-15.013107214773036
 10
-31.57921129466167
 20
-15.009014622838716
 10
-31.627022592151
 20
-14.999663696063646
 10
-31.68775699544928
 20
-14.983196013507058
 10
-31.758715962075126
 20
-14.958471064504165
 10
-31.84044160913945
 20
-14.923381491801486
 10
-31.92725705548179
 20
-14.878723563418013
 10
-32.020317157524126
 20
-14.82245399464836
 10
-32.117559938080234
 20
-14.754055769406898
 10
-32.21685198561259
 20
-14.673356858456957
 10
-32.31605429050875
 20
-14.580533337348061
 10
-32.41308348056967
 20
-14.47610303314698
 10
-32.50220531865102
 20
-14.365911004687135
 10
-32.58592630409959
 20
-14.24683830578766
 10
-32.66282909278923
 20
-14.120121882407718
 10
-32.73170610221391
 20
-13.98720070912752
 10
-32.79158763615757
 20
-13.849681821648117
 10
-32.84176446240371
 20
-13.709302651542954
 10
-32.88180443877701
 20
-13.56789041865741
 10
-32.91156284836784
 20
-13.427319370897935
 10
-32.93118617508258
 20
-13.289466679083349
 10
-32.941109116460055
 20
-13.156167791880023
 10
-32.942044680541336
 20
-13.029172027414907
 10
-32.93496723127303
 20
-12.910099116306158
 10
-32.92108830720452
 20
-12.800397302953641
 10
-32.90182489877902
 20
-12.701303435530642
 10
-32.87769641681674
 20
-12.610275942923325
 10
-32.85136067945903
 20
-12.532662265483424
 10
-32.82481058190004
 20
-12.468870769508383
 10
-32.80000199782516
 20
-12.418881023892068
 10
-32.77871945200969
 20
-12.38218535726632
 10
-32.76181692627109
 20
-12.356920981957472
 10
-32.751045342294056
 20
-12.342814139076056
 10
-32.74512635701404
 20
-12.335973264743858
 10
-32.59499128764262
 20
-12.189930738242465
 10
-32.50136727019271
 20
-12.086006974806818
 10
-32.426764583800676
 20
-11.992345196020363
 10
-32.35226564837026
 20
-11.886354407586794
 10
-32.2872474052124
 20
-11.780507591981692
 10
-32.24003902883728
 20
-11.693275986655294
 10
-32.19075911562651
 20
-11.589495258976378
 10
-32.141152252269
 20
-11.466040018989316
 10
-32.11707638895324
 20
-11.395932771896979
 10
-32.094115334863304
 20
-11.319741714559804
 10
-32.072868575304604
 20
-11.237158789781132
 10
-32.05404258642008
 20
-11.147967859893043
 10
-32.03844630234863
 20
-11.052085839126617
 10
-32.026974963557734
 20
-10.949608456699602
 10
-32.02057898627104
 20
-10.84085657120389
 10
-32.0202156703223
 20
-10.726416623221459
 10
-32.02678406850045
 20
-10.607166789413341
 10
-32.041047161235284
 20
-10.484279606742254
 10
-32.06354999640793
 20
-10.359193282194436
 10
-32.094546339742365
 20
-10.23354820649939
 10
-32.13394790359066
 20
-10.10909197969248
 10
-32.18130799500566
 20
-9.987563872290197
 10
-32.23584531577779
 20
-9.87057552191721
 10
-32.296505227195986
 20
-9.759506431709877
 10
-32.36204783649239
 20
-9.655429586816142
 10
-32.43114745877663
 20
-9.559075372248369
 10
-32.50248766029467
 20
-9.470833569068848
 10
-32.574839642554224
 20
-9.390786279503498
 10
-32.64711733085062
 20
-9.31876086703751
 10
-32.71840810697489
 20
-9.254391579706862
 10
-32.78798224036909
 20
-9.197180521680266
 10
-32.855286229955404
 20
-9.146551729300054
 10
-32.919925715524606
 20
-9.101895182008418
 10
-32.98164294494173
 20
-9.062599995375272
 10
-33.095818504645784
 20
-8.997776558023702
 10
-33.19759776968796
 20
-8.947862796329115
 10
-33.328488892181554
 20
-8.893573174492046
 10
-33.436467543078905
 20
-8.856524268427647
 10
-33.575885284984004
 20
-8.818272947958404
 10
-33.71028765011715
 20
-8.790930530916688
 10
-33.88295305802126
 20
-8.768181208028095
 10
-33.97958507676359
 20
-8.759414067222197
 10
-33.98799618086741
 20
-8.758044666509761
 10
-34.007601448646035
 20
-8.753226396584886
 10
-34.03980556347454
 20
-8.74274728206218
 10
-34.085560403179294
 20
-8.724128849598216
 10
-34.142588199643775
 20
-8.696004384250317
 10
-34.2080019220024
 20
-8.657788760948444
 10
-34.28193907971138
 20
-8.607309648614862
 10
-34.358958159688214
 20
-8.546464384347342
 10
-34.43981614973026
 20
-8.473022488517543
 10
-34.52238875502742
 20
-8.386882610029536
 10
-34.60454994042202
 20
-8.288295434467587
 10
-34.68423686399938
 20
-8.177853888400401
 10
-34.75950852791434
 20
-8.056474944936802
 10
-34.82586404795215
 20
-7.931011912736526
 10
-34.885175589050455
 20
-7.79791702662483
 10
-34.93629653103079
 20
-7.658681466978814
 10
-34.97832559822492
 20
-7.514953329760674
 10
-35.01062776266266
 20
-7.368498809791173
 10
-35.03284898719065
 20
-7.2211608409747186
 10
-35.044924557278584
 20
-7.074816013174166
 10
-35.04708082142532
 20
-6.931330605996708
 10
-35.03983023233142
 20
-6.792516583191384
 10
-35.02395964444194
 20
-6.660088375322158
 10
-35.000511865678234
 20
-6.5356212398799265
 10
-34.97076046447659
 20
-6.420511922490605
 10
-34.93617776980245
 20
-6.315942242538625
 10
-34.89839582458009
 20
-6.222846076877599
 10
-34.85744854962724
 20
-6.138641520201714
 10
-34.81696591086282
 20
-6.068035775964455
 10
-34.77897923157382
 20
-6.011034454298181
 10
-34.74539680685463
 20
-5.967227830715058
 10
-34.717858661145854
 20
-5.935758447381582
 10
-34.6968368271938
 20
-5.914628494960333
 10
-34.683569280925525
 20
-5.902881008972206
 10
-34.676870719011085
 20
-5.897657901820793
 10
-34.50129581016746
 20
-5.78231158797867
 10
-34.389131243636264
 20
-5.69743990497292
 10
-34.29768787652579
 20
-5.619026201531768
 10
-34.20401760245447
 20
-5.528345558016669
 10
-34.11976389995792
 20
-5.435958778173155
 10
-34.05665233513708
 20
-5.3585844694342155
 10
-33.98840728152525
 20
-5.265206961999317
 10
-33.916192097747896
 20
-5.152409197204679
 10
-33.879259409651034
 20
-5.08758136765902
 10
-33.8423133995685
 20
-5.016528916656303
 10
-33.80589521274897
 20
-4.938840770321294
 10
-33.77066908048825
 20
-4.854179289171639
 10
-33.737424863240705
 20
-4.762322209243718
 10
-33.70706968956777
 20
-4.663211116485317
 10
-33.68060463873423
 20
-4.557002870371994
 10
-33.659083237327316
 20
-4.444117855720459
 10
-33.64355075610647
 20
-4.325276524813762
 10
-33.63496702342699
 20
-4.201514330546578
 10
-33.63412023314513
 20
-4.074165956437718
 10
-33.64154376465807
 20
-3.9448135215999374
 10
-33.65745055229455
 20
-3.815200033012788
 10
-33.68169842188573
 20
-3.687117282949253
 10
-33.71379457739796
 20
-3.5622840878198865
 10
-33.7529393217646
 20
-3.442233668008427
 10
-33.798100772815935
 20
-3.3282268252635623
 10
-33.848106596382635
 20
-3.2212011752650334
 10
-33.90173724814291
 20
-3.1217584574300723
 10
-33.95780770926465
 20
-3.030184654240241
 10
-34.01522962834093
 20
-2.946493192682813
 10
-34.0730511435886
 20
-2.870480315750627
 10
-34.13047593858038
 20
-2.8017830779281168
 10
-34.186865625259856
 20
-2.739933115727239
 10
-34.24173043460767
 20
-2.6844022627639994
 10
-34.34556838723324
 20
-2.590092570559497
 10
-34.44036477065264
 20
-2.514572895653881
 10
-34.52569439879406
 20
-2.454039438535836
 10
-34.63666671485246
 20
-2.384595174769279
 10
-34.75665636340545
 20
-2.3199833356104183
 10
-34.88978601521773
 20
-2.259585556390312
 10
-35.02918105450064
 20
-2.207593597602745
 10
-35.21396079410162
 20
-2.1518871975041565
 10
-35.2235620949992
 20
-2.1481585972521904
 10
-35.24413121155924
 20
-2.1382841513252115
 10
-35.276753617173505
 20
-2.119576824987111
 10
-35.319031691598596
 20
-2.091165104134709
 10
-35.3715811952084
 20
-2.050164034812223
 10
-35.42998701325963
 20
-1.9975393994503094
 10
-35.49399358032085
 20
-1.9311251501328122
 10
-35.55857646655733
 20
-1.8540181635827233
 10
-35.62409637983101
 20
-1.763850086387892
 10
-35.68845641190977
 20
-1.6609982808814374
 10
-35.74963839160715
 20
-1.5461820821824848
 10
-35.80576308109883
 20
-1.420439348905067
 10
-35.85514274443844
 20
-1.285096076679861
 10
-35.894790329218395
 20
-1.14784085155007
 10
-35.9258677266456
 20
-1.0047855458045856
 10
-35.94758967820929
 20
-0.8576387465710242
 10
-35.95944500542262
 20
-0.7082075345257259
 10
-35.96120835525009
 20
-0.5583550454855122
 10
-35.95294538911205
 20
-0.40995688795544316
 10
-35.935011339919704
 20
-0.26485727199852405
 10
-35.908042935698134
 20
-0.12482570778901492
 10
-35.872943758155415
 20
0.008484881911731357
 10
-35.83086315949233
 20
0.13357782280242447
 10
-35.78316888716665
 20
0.24914936096528195
 10
-35.731413544196975
 20
0.3541216524624098
 10
-35.67729490970271
 20
0.44767146926346
 10
-35.62260990527567
 20
0.5292541407586353
 10
-35.566936819857034
 20
0.6013611639128814
 10
-35.51472766419207
 20
0.6602515686143793
 10
-35.4679459888254
 20
0.706385423210723
 10
-35.42832842335198
 20
0.740608315952459
 10
-35.397224130627606
 20
0.7641558386546521
 10
-35.37463707410489
 20
0.7791024333110028
 10
-35.36127041572879
 20
0.7867935774184704
 10
-35.354227440418995
 20
0.7902648920500952
 10
-35.16039500696345
 20
0.870110598480659
 10
-35.03353399058051
 20
0.9326526362197474
 10
-34.92833863660046
 20
0.9928133386338718
 10
-34.81861310302274
 20
1.0647389582081879
 10
-34.71788065409154
 20
1.14019026774699
 10
-34.64089927078997
 20
1.2048232069206908
 10
-34.555854339384645
 20
1.2843485939231276
 10
-34.46328003297428
 20
1.3823672151857027
 10
-34.414622249474
 20
1.439567828525355
 10
-34.364809424068945
 20
1.502925184143987
 10
-34.31430677944811
 20
1.5729423408327292
 10
-34.263715523304576
 20
1.6500702248439538
 10
-34.21378260404161
 20
1.734666102169383
 10
-34.165400585721486
 20
1.8269437273175801
 10
-34.1195929705352
 20
1.9269181402987512
 10
-34.0774807308872
 20
2.0343507692868807
 10
-34.04022767857815
 20
2.148703263950742
 10
-34.00896585496212
 20
2.269110402160101
 10
-33.98470704263526
 20
2.3943822895618307
 10
-33.96825162051577
 20
2.523042930386424
 10
-33.960109475317076
 20
2.6534059981168365
 10
-33.96044771230307
 20
2.7836805651425167
 10
-33.96907565583402
 20
2.9120921635194
 10
-33.9854700048332
 20
3.037000566187824
 10
-34.00883447042311
 20
3.156996673728024
 10
-34.03818165850427
 20
3.2709664313155806
 10
-34.072422287239
 20
3.3781175960124723
 10
-34.11044823154582
 20
3.4779726651563188
 10
-34.15120005586839
 20
3.5703363155181127
 10
-34.193714741961514
 20
3.6552476022775933
 10
-34.23715367026905
 20
3.7329264379694544
 10
-34.28081377043529
 20
3.8037216133266814
 10
-34.32412604809661
 20
3.868064920684116
 10
-34.408038113305594
 20
3.9793210598469355
 10
-34.48655257706645
 20
4.070589941307673
 10
-34.55857824898002
 20
4.145507115042019
 10
-34.653947208127924
 20
4.233928313801778
 10
-34.75900150871615
 20
4.319376755940267
 10
-34.87767191100037
 20
4.4032461322035665
 10
-35.00405899666754
 20
4.480173303390917
 10
-35.17411514929529
 20
4.569367620169696
 10
-35.182854471103944
 20
4.5748594588767055
 10
-35.20122191929252
 20
4.588483190265157
 10
-35.22975136906337
 20
4.613069814712874
 10
-35.265918627301836
 20
4.64901682546787
 10
-35.30978234574997
 20
4.699274171161008
 10
-35.35718805244098
 20
4.762053801239887
 10
-35.407475241292886
 20
4.839434471148151
 10
-35.45629642956186
 20
4.927420693978952
 10
-35.503558164724666
 20
5.028407046632173
 10
-35.547273271704626
 20
5.141624870373079
 10
-35.585596833077254
 20
5.2659847343989155
 10
-35.61688082499743
 20
5.400110874736655
 10
-35.63971995271987
 20
5.542380999592818
 10
-35.65263898065096
 20
5.68467879267431
 10
-35.656042698252364
 20
5.831042859285019
 10
-35.64948451167945
 20
5.979646614571531
 10
-35.632805621138
 20
6.1286188026342705
 10
-35.60613849615597
 20
6.276087392070203
 10
-35.56990369660554
 20
6.420223350698454
 10
-35.524800127465205
 20
6.559283445272769
 10
-35.47178888863293
 20
6.69165122313551
 10
-35.412070946918725
 20
6.815875359903504
 10
-35.34705890519751
 20
6.930704598839972
 10
-35.27834316004206
 20
7.0351185616154766
 10
-35.20765270402854
 20
7.128353774197012
 10
-35.13681071007265
 20
7.2099243223518314
 10
-35.06768477684169
 20
7.279636624417928
 10
-34.99939005996683
 20
7.339856588868085
 10
-34.937005314180254
 20
7.3877567915674724
 10
-34.88237065427253
 20
7.424161899159488
 10
-34.837029912842006
 20
7.450232106368617
 10
-34.80207192424644
 20
7.467437118105555
 10
-34.77710629822376
 20
7.477814791708228
 10
-34.76256201507459
 20
7.4828212472745825
 10
-34.75500326659103
 20
7.484891327565803
 10
-34.55978946253246
 20
7.524179560675183
 10
-34.430501222212115
 20
7.558725329146547
 10
-34.296065327528055
 20
7.604086916732004
 10
-34.17401509541032
 20
7.654441520850099
 10
-34.06018456174415
 20
7.710041326875792
 10
-33.971886769334894
 20
7.75946397412838
 10
-33.8728311254325
 20
7.822133736784711
 10
-33.7628946753235
 20
7.901719470113685
 10
-33.70407031072453
 20
7.949183436455441
 10
-33.64297410155915
 20
8.00252742674986
 10
-33.579979846772254
 20
8.062332476118698
 10
-33.515606539773636
 20
8.129151052807112
 10
-33.450535261237555
 20
8.203467187833837
 10
-33.38561750526051
 20
8.285646652784719
 10
-33.3218697399615
 20
8.37587943872288
 10
-33.26044902334738
 20
8.474119563611561
 10
-33.20260595607132
 20
8.580030302257047
 10
-33.14961455358463
 20
8.692945384272676
 10
-33.10268359491122
 20
8.811857292129734
 10
-33.06285962001064
 20
8.93544137170486
 10
-33.03093616178684
 20
9.062118708617199
 10
-33.0073849941529
 20
9.19015268101592
 10
-32.99232199594246
 20
9.3177661716958
 10
-32.98551322055953
 20
9.443261437365797
 10
-32.98641816585578
 20
9.565124461683988
 10
-32.99425997598806
 20
9.682100189743007
 10
-33.008108557028464
 20
9.793232435742432
 10
-33.026962892959766
 20
9.897869783236688
 10
-33.04982219715096
 20
9.99564429098643
 10
-33.07574017302927
 20
10.08643236693489
 10
-33.103860991232956
 20
10.170307074323754
 10
-33.13343869292937
 20
10.247489349212062
 10
-33.16384338219395
 20
10.318303179140486
 10
-33.22516933758993
 20
10.442415634156841
 10
-33.28487338830385
 20
10.546037321830983
 10
-33.34124416055511
 20
10.632520984526911
 10
-33.41785359454837
 20
10.736558541175265
 10
-33.504442910250546
 20
10.839558348272195
 10
-33.60460626624257
 20
10.943638527882104
 10
-33.71361165144
 20
11.042479449989173
 10
-33.8629814356777
 20
11.161622950354634
 10
-33.87053790190971
 20
11.16868615867346
 10
-33.886026602444026
 20
11.18558151403546
 10
-33.90941547723428
 20
11.215172829217407
 10
-33.93814671975387
 20
11.257367341496167
 10
-33.97171953238727
 20
11.315073379708798
 10
-34.00639181641446
 20
11.385744524543371
 10
-34.041121916279124
 20
11.471297247767097
 10
-34.072397826883815
 20
11.566981883978611
 10
-34.09967502571197
 20
11.675132904178197
 10
-34.12114837531686
 20
11.794618295245463
 10
-34.13521332947322
 20
11.92401815135661
 10
-34.140513026044836
 20
12.061668844619865
 10
-34.13597572558151
 20
12.20571079838172
 10
-34.121691847005415
 20
12.347894358531471
 10
-34.09729412507718
 20
12.492262538876611
 10
-34.06269087124647
 20
12.636937199664084
 10
-34.018081437974985
 20
12.780050977329763
 10
-33.96395129779006
 20
12.919791040679177
 10
-33.901060612042556
 20
13.05444146583229
 10
-33.83042653771096
 20
13.182423407891912
 10
-33.75329959045697
 20
13.302332272181335
 10
-33.67113444156985
 20
13.412971127049692
 10
-33.58555556545607
 20
13.513379650145117
 10
-33.49831815998101
 20
13.602857956235944
 10
-33.41126471509957
 20
13.68098471087454
 10
-33.32627747472066
 20
13.7476289811161
 10
-33.24522676855968
 20
13.802955297328285
 10
-33.166796885225274
 20
13.849118759285414
 10
-33.09650847714503
 20
13.884307381392453
 10
-33.03601122018838
 20
13.909680288106117
 10
-32.98659988488762
 20
13.926669823070856
 10
-32.94906319999151
 20
13.936925885512018
 10
-32.922630466495114
 20
13.942375453793586
 10
-32.90744024954287
 20
13.944530069885264
 10
-32.8996408946051
 20
13.945129376722289
 10
-32.699516430295056
 20
13.946804262076625
 10
-32.5652949409347
 20
13.956395205115488
 10
-32.42388230648499
 20
13.975756690035103
 10
-32.29372644326606
 20
14.002461878976463
 10
-32.17068983527756
 20
14.035964777080867
 10
-32.07406507215337
 20
14.068216540764958
 10
-31.964321076099356
 20
14.111584786937414
 10
-31.840671044143605
 20
14.16968676787558
 10
-31.773615899367563
 20
14.205620224092748
 10
-31.703235110664384
 20
14.246955083252319
 10
-31.629798132474367
 20
14.294333762925918
 10
-31.553724736068236
 20
14.348395303831104
 10
-31.475608748561804
 20
14.409738385579418
 10
-31.39623480422193
 20
14.478872970716047
 10
-31.316582492570596
 20
14.55616201873576
 10
-31.237811877529023
 20
14.641757510682904
 10
-31.16122537169948
 20
14.735538330899347
 10
-31.088203916423186
 20
14.837060503473664
 10
-31.020120349086827
 20
14.945531591474975
 10
-30.958238844882196
 20
15.059819447012279
 10
-30.903614586065093
 20
15.178500370609868
 10
-30.85701016263165
 20
15.299943894796911
 10
-30.818843162890833
 20
15.422423096649906
 10
-30.78917314761562
 20
15.544233451945614
 10
-30.767727707337166
 20
15.663801906871173
 10
-30.753959483800266
 20
15.779771355379921
 10
-30.74712129801728
 20
15.891052453292229
 10
-30.74634575377434
 20
15.996842103885951
 10
-30.750718170773517
 20
16.096613768198416
 10
-30.759335854244544
 20
16.19008787750953
 10
-30.771350935528993
 20
16.277191138368202
 10
-30.785997291474082
 20
16.358012232797478
 10
-30.802604014708244
 20
16.432759305240538
 10
-30.83950373745913
 20
16.565242742335116
 10
-30.878559093577802
 20
16.6774333053353
 10
-30.917503702762133
 20
16.772297209677507
 10
-30.972898579419862
 20
16.888083830500353
 10
-31.03819041382355
 20
17.00476981505269
 10
-31.11650452962239
 20
17.12512007056694
 10
-31.210967805132668
 20
17.250208097985688
 10
-31.327803822596135
 20
17.386437886440703
 10
-31.333781310042486
 20
17.3946188001836
 10
-31.345562763992096
 20
17.4136729010327
 10
-31.362746830238912
 20
17.44661522785779
 10
-31.3828693438294
 20
17.49293153355895
 10
-31.404890503005035
 20
17.55537745993503
 10
-31.4256202659658
 20
17.630790185080915
 10
-31.44367051742235
 20
17.720851073354048
 10
-31.45647737658628
 20
17.820265774808217
 10
-31.463061859035427
 20
17.931214368765897
 10
-31.4618570485652
 20
18.052253949080086
 10
-31.45154583255418
 20
18.181694935670464
 10
-31.431099186209906
 20
18.317653292302992
 10
-31.3998042657819
 20
18.458104462301264
 10
-31.359280379403565
 20
18.594967506673846
 10
-31.30840743178402
 20
18.7321359550662
 10
-31.24743943637719
 20
18.86774655210124
 10
-31.176914536239806
 20
18.999999999999975
 10
-31.097642140690123
 20
19.127203079067677
 10
-31.0106839163388
 20
19.247808210425347
 10
-30.917329029243117
 20
19.360449699625434
 10
-30.819064099166354
 20
19.463975936875432
 10
-30.7175383785481
 20
19.557476878903707
 10
-30.614524698732605
 20
19.64030619373949
 10
-30.511876722544148
 20
19.712097506078514
 10
-30.41148298812479
 20
19.772774227865195
 10
-30.315218095876467
 20
19.822552481470197
 10
-30.224891129232777
 20
19.861936597118934
 10
-30.13879239511921
 20
19.892797907806298
 10
-30.062705522678637
 20
19.914373346250926
 10
-29.99804402194186
 20
19.928104404959186
 10
-29.945825549141436
 20
19.935636286778767
 10
-29.906535949732227
 20
19.938735809723052
 10
-29.87906981333663
 20
19.939154071092222
 10
-29.863347114347885
 20
19.938409247449087
 10
-29.85542015322587
 20
19.937521725564718
 10
-29.657376369194786
 20
19.901109967949264
 10
-29.523015884996635
 20
19.885123364343116
 10
-29.37963244846987
 20
19.877476478343514
 10
-29.24593350438013
 20
19.87927508336639
 10
-29.117961911000535
 20
19.88919502335238
 10
-29.01633505534569
 20
19.902899954629714
 10
-28.899647499663345
 20
19.92517230557718
 10
-28.766463616183344
 20
19.959457926829565
 10
-28.693427390972175
 20
19.982449618857
 10
-28.61611109206224
 20
20.010176049750275
 10
-28.534669914763974
 20
20.043322314558733
 10
-28.449410119768803
 20
20.082596236406307
 10
-28.360819115396758
 20
20.12869544436526
 10
-28.269590362646607
 20
20.182261910678264
 10
-28.17663719778503
 20
20.24382450223826
 10
-28.083088821082338
 20
20.313732857840023
 10
-27.990262221764795
 20
20.39208938137928
 10
-27.899606367272288
 20
20.47868954598608
 10
-27.812619766902397
 20
20.572982738274824
 10
-27.73074880154804
 20
20.674065114990437
 10
-27.655280236176452
 20
20.78071157258773
 10
-27.587244802039358
 20
20.891446455021942
 10
-27.527347867922238
 20
21.004644097916156
 10
-27.475937815063602
 20
21.118643619493895
 10
-27.433014495283377
 20
21.23185988923706
 10
-27.3982719323284
 20
21.342874988908363
 10
-27.37116380913463
 20
21.45050043827847
 10
-27.350978474296095
 20
21.553807583043724
 10
-27.336911800908812
 20
21.652129553540206
 10
-27.32812983132022
 20
21.745041817832718
 10
-27.32381718022008
 20
21.832329446359278
 10
-27.323210536477614
 20
21.913948426894454
 10
-27.325618822936065
 20
21.989986613833228
 10
-27.337126047411235
 20
22.12612167315486
 10
-27.354440042535018
 20
22.24284688473708
 10
-27.374821577429838
 20
22.342652266079387
 10
-27.40732552056497
 20
22.46595654324527
 10
-27.44927608013867
 20
22.59202742171502
 10
-27.503214859568168
 20
22.724175098024432
 10
-27.57200583479263
 20
22.864069366019507
 10
-27.660525604300584
 20
23.019158081713655
 10
-27.66485340704792
 20
23.028341827417442
 10
-27.672829694775825
 20
23.04933122915753
 10
-27.6834765827973
 20
23.084986779917593
 10
-27.694469920638795
 20
23.13433055661808
 10
-27.704266843519452
 20
23.199872074070175
 10
-27.71033412859725
 20
23.277897392608285
 10
-27.710990734477136
 20
23.369795160571442
 10
-27.704723109067395
 20
23.469878394431923
 10
-27.69015745056015
 20
23.580103447395413
 10
-27.66602927057301
 20
23.69875609838905
 10
-27.63136617898113
 20
23.823927408040788
 10
-27.585515553252733
 20
23.953572237115754
 10
-27.52816187885205
 20
24.085567523037724
 10
-27.462427595806805
 20
24.212285140829884
 10
-27.386475307550025
 20
24.337336853890605
 10
-27.300908148296536
 20
24.458941530675347
 10
-27.20659607334829
 20
24.575434773491278
 10
-27.104655233948947
 20
24.685307830257074
 10
-26.996421803615075
 20
24.78724282892727
 10
-26.88342078985513
 20
24.880143662229234
 10
-26.767330421194913
 20
24.963161898981692
 10
-26.649942740714124
 20
25.035717156478405
 10
-26.533121055948357
 20
25.097511429303296
 10
-26.418754880787045
 20
25.148536924622107
 10
-26.308712942684103
 20
25.189076989747843
 10
-26.204794693167774
 20
25.21969971472153
 10
-26.108680507517334
 20
25.24124371759757
 10
-26.018338488697434
 20
25.25522272747737
 10
-25.939589681294443
 20
25.261984467056937
 10
-25.873547806857776
 20
25.26321251907675
 10
-25.820898958632295
 20
25.260715244414868
 10
-25.78178347440966
 20
25.256319291187886
 10
-25.75478306495428
 20
25.25153415094922
 10
-25.73952517120471
 20
25.247833377560504
 10
-25.73192530447467
 20
25.245464813033575
 10
-25.543394016815952
 20
25.171893474864206
 10
-25.41374670431694
 20
25.130623446798776
 10
-25.27352894674851
 20
25.095919525786115
 10
-25.14103383936662
 20
25.072430882240454
 10
-25.01262995536493
 20
25.0581039445569
 10
-24.90954752033237
 20
25.052527255104323
 10
-24.789956481066653
 20
25.05263287431428
 10
-24.651808964398526
 20
25.061579266538143
 10
-24.57528004410899
 20
25.070654948205004
 10
-24.49364938248568
 20
25.083631044594483
 10
-24.406951346050487
 20
25.101215055348906
 10
-24.315367577979313
 20
25.124163467797803
 10
-24.219262718329958
 20
25.15325398353018
 10
-24.1192169492497
 20
25.189244323389236
 10
-24.016049310514006
 20
25.232817223401927
 10
-23.91082445332259
 20
25.28451388064517
 10
-23.804835505832912
 20
25.34466168718862
 10
-23.699557805399476
 20
25.41330589247383
 10
-23.596572779710314
 20
25.490157576921142
 10
-23.497467690882477
 20
25.57457047258017
 10
-23.403723628144466
 20
25.665555666834738
 10
-23.31660866317928
 20
25.761836280565806
 10
-23.23709340949928
 20
25.86193563692948
 10
-23.165801781246625
 20
25.964285078672916
 10
-23.103001924684005
 20
26.067334013689543
 10
-23.048633839166875
 20
26.169645977039988
 10
-23.002363836939633
 20
26.269969554192535
 10
-22.963653210611213
 20
26.36727971250082
 10
-22.931829189034953
 20
26.460791160283204
 10
-22.906149257676933
 20
26.549949367814204
 10
-22.885853693042353
 20
26.63440651743659
 10
-22.870204546890815
 20
26.71398938179598
 10
-22.858511728573912
 20
26.788664759071086
 10
-22.844556686786667
 20
26.92366538433192
 10
-22.839810902228308
 20
27.040784969667854
 10
-22.84115853038991
 20
27.141964424618717
 10
-22.84992295275924
 20
27.268344461512875
 10
-22.867339702454558
 20
27.399220365123576
 10
-22.89527336259114
 20
27.53832605889358
 10
-22.93621237602012
 20
27.687865439082074
 10
-22.99344924547479
 20
27.85582847605281
 10
-22.995839993104426
 20
27.865044484072016
 10
-22.999753327091057
 20
27.887075081073608
 10
-23.003489600713234
 20
27.92353328876505
 10
-23.005044177378444
 20
27.975751674590935
 10
-23.00224134949826
 20
28.042016784984728
 10
-22.993407061112805
 20
28.119828619704695
 10
-22.976627961689847
 20
28.210232994679586
 10
-22.95149670332652
 20
28.307356607343074
 10
-22.91629396162342
 20
28.41286140524998
 10
-22.870103699767093
 20
28.524824203329107
 10
-22.812333632393536
 20
28.641186138973932
 10
-22.742731280379793
 20
28.759815360696685
 10
-22.661389932164088
 20
28.878567524911766
 10
-22.572822182872294
 20
28.990544183841404
 10
-22.47453952548001
 20
29.098944535244275
 10
-22.367472271934552
 20
29.20213435844648
 10
-22.25279054243714
 20
29.29864469730506
 10
-22.13187662892655
 20
29.387206148189353
 10
-22.006292608718663
 20
29.466778484706893
 10
-21.87774386001243
 20
29.53657506022394
 10
-21.748039176715682
 20
29.596081487612356
 10
-21.619048209488877
 20
29.645068160642285
 10
-21.492656966592467
 20
29.683596244725365
 10
-21.37072208366319
 20
29.712016815638417
 10
-21.255024503385158
 20
29.730962848019878
 10
-21.14722307340251
 20
29.741333726547534
 10
-21.048808336954707
 20
29.744271830814647
 10
-20.95749971609203
 20
29.740878974438775
 10
-20.878944357239686
 20
29.73260016263842
 10
-20.813915700682227
 20
29.721299672891845
 10
-20.762743365994428
 20
29.708882976111024
 10
-20.72521718023077
 20
29.69716963652628
 10
-20.699657518697087
 20
29.68737242710601
 10
-20.685413515439002
 20
29.680864487649558
 10
-20.678414113833675
 20
29.677106432592414
 10
-20.506332163420115
 20
29.5686698596026
 10
-20.386133561319912
 20
29.50332683368341
 10
-20.25416534973413
 20
29.442489938759802
 10
-20.127637677834255
 20
29.394234466743157
 10
-20.00337819390146
 20
29.355853124768174
 10
-19.90248518231138
 20
29.33093565003329
 10
-19.78418678051107
 20
29.30857457058221
 10
-19.645880105064343
 20
29.291532660008876
 10
-19.56850102749868
 20
29.286194780937063
 10
-19.48536055709088
 20
29.283781612739947
 10
-19.396369247891606
 20
29.28500181515835
 10
-19.301576573443352
 20
29.29063866034747
 10
-19.201211393682534
 20
29.301528370414417
 10
-19.09572139495394
 20
29.31852447121367
 10
-18.98580544991401
 20
29.342446799236242
 10
-18.872431150539473
 20
29.374016267622032
 10
-18.756829240259464
 20
29.413780100645333
 10
-18.640458215902868
 20
29.462036379267648
 10
-18.52493653780245
 20
29.518770160175844
 10
-18.41194633479816
 20
29.58361452186623
 10
-18.303119679027173
 20
29.655847360315157
 10
-18.19992400666613
 20
29.73442849431257
 10
-18.103564775959587
 20
29.818073185754105
 10
-18.014920047281276
 20
29.905350288278886
 10
-17.934514408070235
 20
29.994788625279273
 10
-17.862531141995138
 20
30.084975209118763
 10
-17.798854568218122
 20
30.174632974047462
 10
-17.7431308097989
 20
30.26267184357315
 10
-17.69483509061112
 20
30.34821295880272
 10
-17.653336011788753
 20
30.430590213837892
 10
-17.617950697705894
 20
30.50933536538221
 10
-17.587988030926084
 20
30.584153215426618
 10
-17.562779738412313
 20
30.65489239869966
 10
-17.524180275560152
 20
30.784073410420074
 10
-17.497831735873252
 20
30.897487174981254
 10
-17.480348660278324
 20
30.99647147812577
 10
-17.46537213393419
 20
31.121433992655195
 10
-17.45794548698875
 20
31.25242190196449
 10
-17.459187995727632
 20
31.393455749149908
 10
-17.47111425699747
 20
31.54719033452685
 10
-17.495430939493534
 20
31.722068963588637
 10
-17.496033257619043
 20
31.73158847118269
 10
-17.49570091117424
 20
31.75401391015046
 10
-17.492456375590855
 20
31.790575514776393
 10
-17.4840787406225
 20
31.84219864603634
 10
-17.468757023554605
 20
31.906785189758235
 10
-17.445322154781667
 20
31.98156153016849
 10
-17.41169747605788
 20
32.067192897449644
 10
-17.36859756985492
 20
32.157832926983566
 10
-17.314019373114625
 20
32.254789053324046
 10
-17.247428649558394
 20
32.35599908475881
 10
-17.168634774585644
 20
32.45932912717619
 10
-17.07779459857695
 20
32.56263816213711
 10
-16.975406816825164
 20
32.66383856347356
 10
-16.867210740350647
 20
32.757012006660204
 10
-16.750156528851726
 20
32.844829199140314
 10
-16.6254678282734
 20
32.92586227353656
 10
-16.49457235811563
 20
32.998891147040595
 10
-16.359068268945368
 20
33.06293193878295
 10
-16.220686721289294
 20
33.11725990750586
 10
-16.08125143178542
 20
33.16142648426984
 10
-15.942635966277964
 20
33.19527004093896
 10
-15.806719576078189
 20
33.2189201045711
 10
-15.675342368104088
 20
33.232794791202146
 10
-15.55026056582892
 20
33.237591277787395
 10
-15.433102546484067
 20
33.23426914072105
 10
-15.325326214947182
 20
33.22402633556901
 10
-15.228178067770205
 20
33.20826742812935
 10
-15.139211279990654
 20
33.187642901473275
 10
-15.063694266688856
 20
33.164641718302
 10
-15.002032100988224
 20
33.141240888627294
 10
-14.954186035142305
 20
33.119373426054395
 10
-14.919603219751496
 20
33.10078518141191
 10
-14.896403785051314
 20
33.08634788197836
 10
-14.88368331344641
 20
33.0772822767421
 10
-14.877534967729373
 20
33.07227609747267
 10
-14.728312333572866
 20
32.93255670846166
 10
-14.62200910996613
 20
32.84523379997687
 10
-14.526841356515334
 20
32.77611837706109
 10
-14.419763247489744
 20
32.70758601512126
 10
-14.313377000795247
 20
32.64825402483666
 10
-14.226043663236855
 20
32.60552236614444
 10
-14.122477906081944
 20
32.56132130779663
 10
-13.999667163767654
 20
32.517411854270534
 10
-13.93007925998948
 20
32.49640955729141
 10
-13.85455572595562
 20
32.476660665104035
 10
-13.772797244126911
 20
32.45875074502828
 10
-13.684591293506926
 20
32.443368032669525
 10
-13.589851453445103
 20
32.43129957004582
 10
-13.488661562118399
 20
32.4234164601704
 10
-13.381321091673998
 20
32.42064491803199
 10
-13.268385845927964
 20
32.423920770103244
 10
-13.150696002389374
 20
32.434127281556584
 10
-13.029382454841418
 20
32.452019739046776
 10
-12.90584336936584
 20
32.47814460590654
 10
-12.781686573392099
 20
32.51276511743376
 10
-12.658639723254925
 20
32.55580722141193
 10
-12.538437755647065
 20
32.606838283519664
 10
-12.42270349527969
 20
32.66508553406253
 10
-12.312839963311676
 20
32.729493063012704
 10
-12.209950625387904
 20
32.798807890706
 10
-12.114797254413565
 20
32.87168007948041
 10
-12.027796664722187
 20
32.94676066714961
 10
-11.9490501509134
 20
33.022784196540556
 10
-11.878395013624209
 20
33.09862809445679
 10
-11.815466557513195
 20
33.17334697108569
 10
-11.75976063024589
 20
33.246184437075414
 10
-11.710689815356545
 20
33.316567585188395
 10
-11.667629592828742
 20
33.38408999398961
 10
-11.629953389618356
 20
33.4484885548844
 10
-11.568375251704685
 20
33.56742762097193
 10
-11.52163048492943
 20
33.673218324800025
 10
-11.486178150371636
 20
33.766561697576975
 10
-11.448295703301255
 20
33.88572093422363
 10
-11.41659909942159
 20
34.01218209290655
 10
-11.391421529029751
 20
34.150104774351114
 10
-11.374223603578308
 20
34.30249369903037
 10
-11.365074072312048
 20
34.47793461965064
 10
-11.363859504190483
 20
34.48741332974155
 10
-11.359273636158889
 20
34.50942100872507
 10
-11.349144652106212
 20
34.54475946502912
 10
-11.331117055005656
 20
34.59391331488304
 10
-11.303811506624253
 20
34.6544760514808
 10
-11.266606925601355
 20
34.72350130109989
 10
-11.217338243438444
 20
34.80124968056775
 10
-11.157816944984406
 20
34.88211421920202
 10
-11.085828281516944
 20
34.967000477246806
 10
-11.00123927739327
 20
35.05378227535202
 10
-10.904267913998956
 20
35.14032831107619
 10
-10.795474668039386
 20
35.22456627819251
 10
-10.675745499298506
 20
35.304541202791874
 10
-10.551838452673604
 20
35.37552982005612
 10
-10.420252479285052
 20
35.439577497810276
 10
-10.2824600458304
 20
35.495514657655676
 10
-10.140094535665439
 20
35.54241446869881
 10
-9.994911824132716
 20
35.57961436103569
 10
-9.84874918374708
 20
35.606731442232494
 10
-9.703482332232099
 20
35.623671540645915
 10
-9.560981457041153
 20
35.6306316706644
 10
-9.423067053028918
 20
35.62809578619
 10
-9.291466392450264
 20
35.61682374979296
 10
-9.16777140461802
 20
35.59783348290879
 10
-9.053398670392303
 20
35.57237625818732
 10
-8.94955212390971
 20
35.54190501825874
 10
-8.85718888156688
 20
35.508035403824465
 10
-8.773784236505703
 20
35.47094345865286
 10
-8.704036949572943
 20
35.43407092758272
 10
-8.647969067727786
 20
35.39943550181004
 10
-8.605175028634473
 20
35.36892719079976
 10
-8.574779686624382
 20
35.34415422677367
 10
-8.554771343144981
 20
35.325615370495825
 10
-8.5440263753877
 20
35.31433278305265
 10
-8.538947944852001
 20
35.308264359496114
 10
-8.418229904502141
 20
35.142015653000016
 10
-8.329816151193864
 20
35.035622825345854
 10
-8.248878818090162
 20
34.949315866760266
 10
-8.15599995707636
 20
34.861336607740405
 10
-8.06201152221663
 20
34.78260103399607
 10
-7.983696989861193
 20
34.72389441133221
 10
-7.889580771714214
 20
34.6607078630745
 10
-7.776354248355188
 20
34.59424064655527
 10
-7.711465003775916
 20
34.56043955134544
 10
-7.6404715565915
 20
34.52678838840077
 10
-7.5629737414346945
 20
34.49381581983295
 10
-7.478640445109254
 20
34.46216838188056
 10
-7.387249618995349
 20
34.432613402366734
 10
-7.2887349379336355
 20
34.40603179440819
 10
-7.183235960535699
 20
34.383396784540004
 10
-7.071146216547509
 20
34.36573525930403
 10
-6.953151207828043
 20
34.3540703382978
 10
-6.830246711556177
 20
34.349347196063725
 10
-6.703728102152327
 20
34.35234871688783
 10
-6.575144558396433
 20
34.36361218683116
 10
-6.446218084404703
 20
34.38336119824125
 10
-6.318735048406591
 20
34.4114665564032
 10
-6.194425049327008
 20
34.4474454734986
 10
-6.074845697016206
 20
34.49050060885576
 10
-5.961290728656077
 20
34.53959199954637
 10
-5.854733144092621
 20
34.593528516765865
 10
-5.755806899906349
 20
34.65106313159824
 10
-5.6648229930008585
 20
34.710978153158386
 10
-5.581810645901125
 20
34.77215131518026
 10
-5.50657252218633
 20
34.833599103774056
 10
-5.438743905558292
 20
34.894498353343465
 10
-5.377848374560431
 20
34.95419004925874
 10
-5.3233455104101495
 20
35.01217043406689
 10
-5.274668785096646
 20
35.06807436686258
 10
-5.192556842716239
 20
35.172762790725834
 10
-5.127320052728364
 20
35.26733081130213
 10
-5.075379454690327
 20
35.35183026717765
 10
-5.016222545045835
 20
35.461061125264386
 10
-4.961681297410053
 20
35.578574490118875
 10
-4.911291013360941
 20
35.708516471079115
 10
-4.86589949792866
 20
35.85412685499032
 10
-4.823945733344791
 20
36.023819732662915
 10
-4.820951589478146
 20
36.03291355007976
 10
-4.812258827898167
 20
36.05370223334497
 10
-4.795591920910698
 20
36.08653132814214
 10
-4.768547318861446
 20
36.13142736712576
 10
-4.73022853487398
 20
36.18576313497499
 10
-4.680585541129011
 20
36.246526732340804
 10
-4.617442951125296
 20
36.31356472847287
 10
-4.543644245460708
 20
36.38171348084585
 10
-4.456842720077583
 20
36.4514437757415
 10
-4.357311522364638
 20
36.52064279773025
 10
-4.24566932110292
 20
36.58725936700156
 10
-4.122859834245724
 20
36.649365269716874
 10
-3.9901240574755907
 20
36.7052092934396
 10
-3.8549937817222246
 20
36.751434853968476
 10
-3.713643245324879
 20
36.78938771773023
 10
-3.5677401722597453
 20
36.81819913519199
 10
-3.419064193680122
 20
36.837269238551386
 10
-3.2694650387233564
 20
36.846280869190224
 10
-3.1208192606202347
 20
36.8452069123731
 10
-2.9749863487314636
 20
36.83431102217126
 10
-2.83376508385423
 20
36.81414169345387
 10
-2.698850983566798
 20
36.785519708281164
 10
-2.5717956555678585
 20
36.749519040653276
 10
-2.453968828615257
 20
36.70744133276017
 10
-2.346523760529591
 20
36.660784037798685
 10
-2.2503666264261564
 20
36.611202227226144
 10
-2.1661303590028433
 20
36.5604638292926
 10
-2.091303474637397
 20
36.508264466658645
 10
-2.0298449863928085
 20
36.458872980283694
 10
-1.9813932135511205
 20
36.4142742279645
 10
-1.9451907168207536
 20
36.376246263408326
 10
-1.9200722295702533
 20
36.34620085858477
 10
-1.9039674774412312
 20
36.324245462596124
 10
-1.89557627008154
 20
36.31116497781963
 10
-1.8917471110327995
 20
36.30425781917838
 10
-1.804201748771975
 20
36.11724372507741
 10
-1.7370698122418273
 20
35.99541174787845
 10
-1.6734464289850313
 20
35.89481413336878
 10
-1.5982768198955624
 20
35.79029813762584
 10
-1.5202057621101668
 20
35.694718079411274
 10
-1.4538175036687049
 20
35.62191342704114
 10
-1.3726149923857833
 20
35.54172825185857
 10
-1.2730981574455655
 20
35.45475104741085
 10
-1.2152519279895686
 20
35.40917356027068
 10
-1.1513375815735416
 20
35.362623432562245
 10
-1.0808649066523601
 20
35.315555169015994
 10
-1.003392337969121
 20
35.26855328656202
 10
-0.9185665037880888
 20
35.222342134020366
 10
-0.8261700903649192
 20
35.177786640176876
 10
-0.7261754771730675
 20
35.1358794992513
 10
-0.6187990475889344
 20
35.0977105527041
 10
-0.5045483307270985
 20
35.06441569169777
 10
-0.3842520173536564
 20
35.037105805729695
 10
-0.2590625625978942
 20
35.01678094800821
 10
-0.13042359378964874
 20
35.00424000155338
  0
POINT
  5
2F
330
17
100
AcDbEntity
  8
cam
100
AcDbPoint
 10
0.0
 20
1.0
 30
0.0
  0
CIRCLE
  5
31
330
17
100
AcDbEntity
  8
pins
100
AcDbCircle
 10
0.0
 20
37.0
 30
0.0
 40
2.0
  0
CIRCLE
  5
32
330
17
100
AcDbEntity
  8
pins
100
AcDbCircle
 10
-6.7987321592131025
 20
36.37000468830436
 30
0.0
 40
2.0
  0
CIRCLE
  5
33
330
17
100
AcDbEntity
  8
pins
100
AcDbCircle
 10
-13.365941648924657
 20
34.501472487961166
 30
0.0
 40
2.0
  0
CIRCLE
  5
34
330
17
100
AcDbEntity
  8
pins
100
AcDbCircle
 10
-19.477990026462162
 20
31.458034021995726
 30
0.0
 40
2.0
  0
CIRCLE
  5
35
330
17
100
AcDbEntity
  8
pins
100
AcDbCircle
 10
-24.926738814922615
 20
27.343329937164388
 30
0.0
 40
1.9999999999999998
  0
CIRCLE
  5
36
330
17
100
AcDbEntity
  8
pins
100
AcDbCircle
 10
-29.52663740936886
 20
22.297481546032486
 30
0.0
 40
2.0
  0
CIRCLE
  5
37
330
17
100
AcDbEntity
  8
pins
100
AcDbCircle
 10
-33.121041780137304
 20
16.492319163731917
 30
0.0
 40
2.0
  0
CIRCLE
  5
38
330
17
100
AcDbEntity
  8
pins
100
AcDbCircle
 10
-35.587548797394305
 20
10.125530632667063
 30
0.0
 40
1.9999999999999998
  0
CIRCLE
  5
39
330
17
100
AcDbEntity
  8
pins
100
AcDbCircle
 10
-36.84216452291628
 20
3.4139293001421747
 30
0.0
 40
1.9999999999999998
  0
CIRCLE
  5
3A
330
17
100
AcDbEntity
  8
pins
100
AcDbCircle
 10
-36.84216452291628
 20
-3.4139293001421698
 30
0.0
 40
2.0
  0
CIRCLE
  5
3B
330
17
100
AcDbEntity
  8
pins
100
AcDbCircle
 10
-35.587548797394305
 20
-10.125530632667067
 30
0.0
 40
1.9999999999999998
  0
CIRCLE
  5
3C
330
17
100
AcDbEntity
  8
pins
100
AcDbCircle
 10
-33.121041780137304
 20
-16.492319163731914
 30
0.0
 40
2.0
  0
CIRCLE
  5
3D
330
17
100
AcDbEntity
  8
pins
100
AcDbCircle
 10
-29.526637409368867
 20
-22.297481546032483
 30
0.0
 40
2.0
  0
CIRCLE
  5
3E
330
17
100
AcDbEntity
  8
pins
100
AcDbCircle
 10
-24.926738814922626
 20
-27.34332993716438
 30
0.0
 40
2.0
  0
CIRCLE
  5
3F
330
17
100
AcDbEntity
  8
pins
100
AcDbCircle
 10
-19.477990026462162
 20
-31.458034021995726
 30
0.0
 40
2.0
  0
CIRCLE
  5
40
330
17
100
AcDbEntity
  8
pins
100
AcDbCircle
 10
-13.365941648924657
 20
-34.501472487961166
 30
0.0
 40
2.0
  0
CIRCLE
  5
41
330
17
100
AcDbEntity
  8
pins
100
AcDbCircle
 10
-6.798732159213103
 20
-36.37000468830436
 30
0.0
 40
2.0
  0
CIRCLE
  5
42
330
17
100
AcDbEntity
  8
pins
100
AcDbCircle
 10
-4.531193156845207e-15
 20
-37.0
 30
0.0
 40
2.0
  0
CIRCLE
  5
43
330
17
100
AcDbEntity
  8
pins
100
AcDbCircle
 10
6.7987321592130945
 20
-36.37000468830436
 30
0.0
 40
2.0
  0
CIRCLE
  5
44
330
17
100
AcDbEntity
  8
pins
100
AcDbCircle
 10
13.365941648924665
 20
-34.50147248796116
 30
0.0
 40
1.9999999999999998
  0
CIRCLE
  5
45
330
17
100
AcDbEntity
  8
pins
100
AcDbCircle
 10
19.477990026462166
 20
-31.458034021995722
 30
0.0
 40
2.0
  0
CIRCLE
  5
46
330
17
100
AcDbEntity
  8
pins
100
AcDbCircle
 10
24.926738814922615
 20
-27.343329937164388
 30
0.0
 40
1.9999999999999998
  0
CIRCLE
  5
47
330
17
100
AcDbEntity
  8
pins
100
AcDbCircle
 10
29.52663740936886
 20
-22.29748154603249
 30
0.0
 40
2.0
  0
CIRCLE
  5
48
330
17
100
AcDbEntity
  8
pins
100
AcDbCircle
 10
33.12104178013731
 20
-16.492319163731906
 30
0.0
 40
2.0
  0
CIRCLE
  5
49
330
17
100
AcDbEntity
  8
pins
100
AcDbCircle
 10
35.587548797394305
 20
-10.125530632667076
 30
0.0
 40
2.0
  0
CIRCLE
  5
4A
330
17
100
AcDbEntity
  8
pins
100
AcDbCircle
 10
36.84216452291628
 20
-3.413929300142171
 30
0.0
 40
2.0
  0
CIRCLE
  5
4B
330
17
100
AcDbEntity
  8
pins
100
AcDbCircle
 10
36.84216452291628
 20
3.4139293001421573
 30
0.0
 40
2.0
  0
CIRCLE
  5
4C
330
17
100
AcDbEntity
  8
pins
100
AcDbCircle
 10
35.587548797394305
 20
10.125530632667063
 30
0.0
 40
1.9999999999999998
  0
CIRCLE
  5
4D
330
17
100
AcDbEntity
  8
pins
100
AcDbCircle
 10
33.121041780137304
 20
16.492319163731924
 30
0.0
 40
2.0
  0
CIRCLE
  5
4E
330
17
100
AcDbEntity
  8
pins
100
AcDbCircle
 10
29.526637409368867
 20
22.29748154603248
 30
0.0
 40
2.0
  0
CIRCLE
  5
4F
330
17
100
AcDbEntity
  8
pins
100
AcDbCircle
 10
24.92673881492261
 20
27.34332993716439
 30
0.0
 40
2.0
  0
CIRCLE
  5
50
330
17
100
AcDbEntity
  8
pins
100
AcDbCircle
 10
19.477990026462177
 20
31.458034021995715
 30
0.0
 40
1.9999999999999998
  0
CIRCLE
  5
51
330
17
100
AcDbEntity
  8
pins
100
AcDbCircle
 10
13.365941648924663
 20
34.501472487961166
 30
0.0
 40
2.0
  0
CIRCLE
  5
52
330
17
100
AcDbEntity
  8
pins
100
AcDbCircle
 10
6.798732159213093
 20
36.37000468830436
 30
0.0
 40
2.0
  0
ENDSEC
  0
SECTION
  2
OBJECTS
  0
DICTIONARY
  5
A
330
0
100
AcDbDictionary
281
1
  3
ACAD_COLOR
350
B
  3
ACAD_GROUP
350
C
  3
ACAD_LAYOUT
350
D
  3
ACAD_MATERIAL
350
E
  3
ACAD_MLEADERSTYLE
350
F
  3
ACAD_MLINESTYLE
350
10
  3
ACAD_PLOTSETTINGS
350
11
  3
ACAD_PLOTSTYLENAME
350
12
  3
ACAD_SCALELIST
350
14
  3
ACAD_TABLESTYLE
350
15
  3
ACAD_VISUALSTYLE
350
16
  0
DICTIONARY
  5
B
330
A
100
AcDbDictionary
281
1
  0
DICTIONARY
  5
C
330
A
100
AcDbDictionary
281
1
  0
DICTIONARY
  5
D
330
A
100
AcDbDictionary
281
1
  3
Model
350
1A
  3
Layout1
350
1E
  0
DICTIONARY
  5
E
330
A
100
AcDbDictionary
281
1
  3
ByBlock
350
1F
  3
ByLayer
350
20
  3
Global
350
21
  0
DICTIONARY
  5
F
330
A
100
AcDbDictionary
281
1
  3
Standard
350
2C
  0
DICTIONARY
  5
10
330
A
100
AcDbDictionary
281
1
  3
Standard
350
22
  0
DICTIONARY
  5
11
330
A
100
AcDbDictionary
281
1
  0
ACDBDICTIONARYWDFLT
  5
12
330
A
100
AcDbDictionary
281
1
  3
Normal
350
13
100
AcDbDictionaryWithDefault
340
13
  0
ACDBPLACEHOLDER
  5
13
330
12
  0
DICTIONARY
  5
14
330
A
100
AcDbDictionary
281
1
  0
DICTIONARY
  5
15
330
A
100
AcDbDictionary
281
1
  0
DICTIONARY
  5
16
330
A
100
AcDbDictionary
281
1
  0
LAYOUT
  5
1A
330
D
100
AcDbPlotSettings
  1

  2
Adobe PDF
  4
A4
  6

 40
3.175
 41
3.175
 42
3.175
 43
3.175
 44
209.91
 45
297.03
 46
0.0
 47
0.0
 48
0.0
 49
0.0
140
0.0
141
0.0
142
1.0
143
1.0
 70
1024
 72
0
 73
1
 74
5
  7

 75
16
 76
0
 77
2
 78
300
147
1.0
148
0.0
149
0.0
100
AcDbLayout
  1
Model
 70
1
 71
0
 10
-3.175
 20
-3.175
 11
293.857
 21
206.735
 12
0.0
 22
0.0
 32
0.0
 14
29.068
 24
20.356
 34
0.0
 15
261.614
 25
183.204
 35
0.0
146
0.0
 13
0.0
 23
0.0
 33
0.0
 16
1.0
 26
0.0
 36
0.0
 17
0.0
 27
1.0
 37
0.0
 76
1
330
17
  0
LAYOUT
  5
1E
330
D
100
AcDbPlotSettings
  1

  2
Adobe PDF
  4
A4
  6

 40
3.175
 41
3.175
 42
3.175
 43
3.175
 44
209.91
 45
297.03
 46
0.0
 47
0.0
 48
0.0
 49
0.0
140
0.0
141
0.0
142
1.0
143
1.0
 70
0
 72
0
 73
1
 74
5
  7

 75
16
 76
0
 77
2
 78
300
147
1.0
148
0.0
149
0.0
100
AcDbLayout
  1
Layout1
 70
1
 71
1
 10
-3.175
 20
-3.175
 11
293.857
 21
206.735
 12
0.0
 22
0.0
 32
0.0
 14
29.068
 24
20.356
 34
0.0
 15
261.614
 25
183.204
 35
0.0
146
0.0
 13
0.0
 23
0.0
 33
0.0
 16
1.0
 26
0.0
 36
0.0
 17
0.0
 27
1.0
 37
0.0
 76
1
330
1B
  0
MATERIAL
  5
1F
102
{ACAD_REACTORS
330
E
102
}
330
E
100
AcDbMaterial
  1
ByBlock
  2

 70
0
 40
1.0
 71
1
 41
1.0
 91
-1023410177
 42
1.0
 72
1
  3

 73
1
 74
1
 75
1
 44
0.5
 73
0
 45
1.0
 46
1.0
 77
1
  4

 78
1
 79
1
170
1
 48
1.0
171
1
  6

172
1
173
1
174
1
140
1.0
141
1.0
175
1
  7

176
1
177
1
178
1
143
1.0
179
1
  8

270
1
271
1
272
1
145
1.0
146
1.0
273
1
  9

274
1
275
1
276
1
 42
1.0
 72
1
  3

 73
1
 74
1
 75
1
 94
63
  0
MATERIAL
  5
20
102
{ACAD_REACTORS
330
E
102
}
330
E
100
AcDbMaterial
  1
ByLayer
  2

 70
0
 40
1.0
 71
1
 41
1.0
 91
-1023410177
 42
1.0
 72
1
  3

 73
1
 74
1
 75
1
 44
0.5
 73
0
 45
1.0
 46
1.0
 77
1
  4

 78
1
 79
1
170
1
 48
1.0
171
1
  6

172
1
173
1
174
1
140
1.0
141
1.0
175
1
  7

176
1
177
1
178
1
143
1.0
179
1
  8

270
1
271
1
272
1
145
1.0
146
1.0
273
1
  9

274
1
275
1
276
1
 42
1.0
 72
1
  3

 73
1
 74
1
 75
1
 94
63
  0
MATERIAL
  5
21
102
{ACAD_REACTORS
330
E
102
}
330
E
100
AcDbMaterial
  1
Global
  2

 70
0
 40
1.0
 71
1
 41
1.0
 91
-1023410177
 42
1.0
 72
1
  3

 73
1
 74
1
 75
1
 44
0.5
 73
0
 45
1.0
 46
1.0
 77
1
  4

 78
1
 79
1
170
1
 48
1.0
171
1
  6

172
1
173
1
174
1
140
1.0
141
1.0
175
1
  7

176
1
177
1
178
1
143
1.0
179
1
  8

270
1
271
1
272
1
145
1.0
146
1.0
273
1
  9

274
1
275
1
276
1
 42
1.0
 72
1
  3

 73
1
 74
1
 75
1
 94
63
  0
MLINESTYLE
  5
22
102
{ACAD_REACTORS
330
10
102
}
330
10
100
AcDbMlineStyle
  2
Standard
 70
0
  3

 62
256
 51
90.0
 52
90.0
 71
2
 49
0.5
 62
256
  6
BYLAYER
 49
-0.5
 62
256
  6
BYLAYER
  0
MLEADERSTYLE
  5
2C
102
{ACAD_REACTORS
330
F
102
}
330
F
100
AcDbMLeaderStyle
179
2
170
2
171
1
172
0
 90
2
 40
0.0
 41
0.0
173
1
 91
-1056964608
 92
-2
290
1
 42
2.0
291
1
 43
8.0
  3
Standard
 44
4.0
300

342
29
174
1
175
1
176
0
178
1
 93
-1056964608
 45
4.0
292
0
297
0
 46
4.0
 94
-1056964608
 47
1.0
 49
0.0
140
1.0
294
1
141
0.0
177
0
142
1.0
295
0
296
0
143
3.75
271
0
272
9
272
9
  0
ENDSEC
  0
EOF
